<?xml version="1.0" encoding="utf-8"?>
<svg version="1.1" id="Layer_1" xmlns="http://www.w3.org/2000/svg"
	xmlns:xlink="http://www.w3.org/1999/xlink" x="0px" y="0px"
	viewBox="0 0 512 512" style="enable-background:new 0 0 512 512;" xml:space="preserve">
<g id="XMLID_1_">
	<g id="XMLID_2_">
		<g id="XMLID_3_">
			<path id="XMLID_19_" d="M509.51,362.5h-14.77h-7.61c-0.73-3.66-1.76-6.29-3.22-7.75c-2.34-2.34-6.44-3.66-12.14-3.66
				c-5.56,0-9.36,0.88-11.56,2.78c-1.61,1.32-2.49,3.36-2.49,5.71c0,3.36,4.68,6.14,14.04,8.19c10.68,2.34,18.29,4.24,22.97,6
				c1.17,0.44,2.34,0.88,3.07,1.17c9.51,4.53,14.19,11.26,14.19,20.33c0,11.12-4.68,19.16-13.75,24.28
				c-1.17,0.59-2.19,1.17-3.51,1.76c-6,2.49-12.87,3.8-20.63,3.8c-11.7,0-21.07-2.05-28.23-6.14c-4.53-2.63-7.9-5.85-10.09-9.95
				c-2.19-3.95-3.36-8.63-3.36-13.9h23.41c0,3.95,1.46,7.17,4.24,9.36c2.93,2.19,7.75,3.36,14.63,3.36c5.12,0,9.07-1.02,11.56-3.22
				c2.05-1.76,2.93-3.51,2.93-5.71c0-3.66-4.68-6.44-13.75-8.48c-13.75-2.93-22.38-5.27-25.89-7.02
				c-9.36-4.39-14.04-11.12-14.04-20.63c0-7.61,2.34-13.9,7.31-19.16c6.14-6.58,15.36-9.8,27.65-9.8c10.09,0,18.14,1.46,24.28,4.24
				c0.59,0.29,1.02,0.44,1.46,0.73c4.39,2.34,7.75,5.56,9.95,9.51C508.34,352.26,509.51,356.94,509.51,362.5z"/>
			<path d="M497.52,307.93c0-0.44,0-0.88-0.29-1.17c-0.29-0.44-0.59-0.59-1.02-0.73c-0.29-0.15-0.73-0.15-1.46-0.29h-0.88h-2.63
				v4.24h2.78c0.29,0,0.59,0,0.73,0c1.02,0,1.76-0.29,2.05-0.59C497.23,309.1,497.52,308.52,497.52,307.93z M499.42,305.59
				c0.44,0.59,0.73,1.32,0.73,2.05c0,1.02-0.44,2.05-1.17,2.78c-0.73,0.73-1.76,1.17-3.07,1.32c0.59,0.29,0.88,0.44,1.17,0.73
				l2.19,2.93l1.76,2.78h-2.78l-1.32-2.34c-0.88-1.46-1.46-2.49-2.19-3.07c0,0-0.15-0.15-0.29-0.29l-1.9-0.59h-1.32v6.14h-2.34
				v-14.48h4.97c0.29,0,0.59,0,0.88,0c1.17,0,2.19,0.15,2.78,0.44C498.25,304.42,498.83,304.86,499.42,305.59z"/>
			<path d="M505.86,310.86c0-2.05-0.44-3.8-1.46-5.56c-1.02-1.76-2.34-3.22-4.1-4.1c-1.76-0.88-3.66-1.46-5.41-1.46l0,0
				c-1.9,0-3.66,0.59-5.41,1.46c-1.76,1.02-3.22,2.34-4.1,4.1c-1.02,1.76-1.46,3.66-1.46,5.56c0,1.9,0.59,3.8,1.46,5.56
				c0.88,1.76,2.34,3.07,4.1,4.1c1.76,1.02,3.66,1.46,5.56,1.46l0,0c1.9,0,3.8-0.44,5.56-1.46c1.76-1.02,3.22-2.34,4.1-4.1
				C505.42,314.66,505.86,312.76,505.86,310.86z M508.2,310.86c0,2.19-0.59,4.53-1.76,6.58c-1.17,2.19-2.78,3.8-4.97,4.97
				c-2.19,1.17-4.24,1.76-6.58,1.76l0,0c-2.34,0-4.53-0.59-6.58-1.76c-2.19-1.17-3.8-2.78-4.97-4.97c-1.17-2.19-1.76-4.39-1.76-6.58
				c0-2.34,0.59-4.68,1.76-6.73c1.17-2.19,2.93-3.8,4.97-4.97c2.19-1.17,4.24-1.76,6.58-1.76l0,0c2.19,0,4.39,0.59,6.58,1.76
				c2.19,1.17,3.8,2.78,4.97,4.97C507.61,306.18,508.2,308.52,508.2,310.86z"/>
			<polygon id="XMLID_14_" points="377.12,202.02 440.32,307.35 377.12,307.35 338.8,307.35 278.38,206.7 232.59,130.49 
				278.38,102.99 307.2,85.72 			"/>
			<path d="M423.06,380.64v43.15h-21.07v-4.83c-7.02,4.68-15.51,7.31-24.72,7.31c-0.15,0-0.15,0-0.29,0
				c-25.16-0.15-45.49-20.63-45.49-45.79s20.48-45.64,45.49-45.79c0.15,0,0.15,0,0.29,0c9.07,0,17.55,2.63,24.72,7.31v-4.97h21.07
				V380.64z M401.99,385.32v-9.51c-2.19-11.56-12.43-20.33-24.72-20.33c-0.15,0-0.15,0-0.29,0c-13.75,0.15-25.01,11.26-25.01,25.16
				c0,13.75,11.12,25.01,25.01,25.16c0.15,0,0.15,0,0.29,0C389.56,405.8,399.8,396.87,401.99,385.32z"/>
			<path d="M324.32,380.64v43.15h-21.07v-4.83c-7.17,4.68-15.51,7.31-24.72,7.31c0,0-0.15,0-0.29,0
				c-25.16-0.15-45.49-20.63-45.49-45.79s20.48-45.64,45.49-45.79c0,0,0.15,0,0.29,0c9.07,0,17.55,2.63,24.72,7.31v-34.67h21.07
				V380.64z M303.25,385.32v-9.51c-2.19-11.56-12.43-20.33-24.72-20.33c0,0-0.15,0-0.29,0c-13.75,0.15-25.01,11.26-25.01,25.16
				c0,13.75,11.12,25.01,25.01,25.16c0,0,0.15,0,0.29,0C290.67,405.8,301.06,396.87,303.25,385.32z"/>
			<polygon id="XMLID_9_" points="278.38,265.95 303.1,307.35 278.38,307.35 201.58,307.35 145.26,213.58 142.77,209.48 
				145.26,208.02 217.38,164.57 			"/>
			<rect id="XMLID_8_" x="201.73" y="334.85" width="22.82" height="88.94"/>
			<rect id="XMLID_7_" x="201.73" y="307.79" width="22.82" height="20.04"/>
			<path d="M191.2,380.64v43.15h-21.07v-4.83c-7.17,4.68-15.65,7.31-24.72,7.31c0,0-0.15,0-0.29,0
				c-25.16-0.15-45.49-20.63-45.49-45.79s20.48-45.64,45.49-45.79c0,0,0.15,0,0.29,0c9.07,0,17.55,2.63,24.72,7.31v-34.67h21.07
				V380.64z M170.13,385.32v-9.51c-2.19-11.56-12.43-20.33-24.72-20.33c0,0-0.15,0-0.29,0c-13.75,0.15-25.01,11.26-25.01,25.16
				c0,13.75,11.12,25.01,25.01,25.16c0,0,0.15,0,0.29,0C157.7,405.8,167.94,396.87,170.13,385.32z"/>
			<polygon id="XMLID_4_" points="145.26,272.68 166.03,307.35 145.26,307.35 64.37,307.35 52.96,288.33 127.71,243.57 			"/>
			<path d="M91.43,380.64v43.15H70.36v-4.83c-7.17,4.68-15.65,7.31-24.72,7.31c-0.15,0-0.15,0-0.29,0
				C20.48,426.13,0,405.65,0,380.64c0-25.16,20.48-45.64,45.49-45.79c0.15,0,0.15,0,0.29,0c9.07,0,17.55,2.63,24.72,7.31v-4.97
				h21.07v43.45H91.43z M70.36,385.32v-9.51c-2.19-11.56-12.43-20.33-24.72-20.33c-0.15,0-0.15,0-0.29,0
				c-13.75,0.15-24.87,11.26-24.87,25.16c0,13.75,11.12,25.01,24.87,25.16c0.15,0,0.15,0,0.29,0
				C57.93,405.8,68.17,396.87,70.36,385.32z"/>
		</g>
	</g>
</g>
</svg>