<?xml version="1.0" encoding="utf-8"?>
<!-- Generator: Adobe Illustrator 24.3.0, SVG Export Plug-In . SVG Version: 6.00 Build 0)  -->
<svg version="1.1" id="Layer_1" xmlns="http://www.w3.org/2000/svg" xmlns:xlink="http://www.w3.org/1999/xlink" x="0px" y="0px"
	 viewBox="0 0 512 512" style="enable-background:new 0 0 512 512;" xml:space="preserve">

<g id="XMLID_1_">
	<path id="XMLID_2_" class="st0" d="M48,407.28c-16.84,0-30.59-14.03-30.59-31.29S31.16,344.7,48,344.7s30.59,14.03,30.59,31.29
		C78.58,393.25,64.83,407.28,48,407.28z M78.58,411.21c0,2.81,4.91,10.94,10.94,10.94h3.93c1.54,0,2.81-1.26,2.81-2.81v-85.45l0,0
		c-0.14-1.4-1.26-2.53-2.67-2.53H81.53c-1.4,0-2.67,1.12-2.67,2.53l0,0v7.02C71.43,331.79,59.78,328,48.14,328
		c-26.52,0-47.99,21.47-47.99,47.99c0,26.52,21.47,47.99,47.99,47.99C59.64,424.11,72.27,419.62,78.58,411.21L78.58,411.21z
		 M124.89,399c8,5.61,16.84,8.28,25.26,8.28c8,0,16.42-4.21,16.42-11.37c0-9.68-18.1-11.23-29.47-15.01
		c-11.37-3.93-21.19-11.93-21.19-24.84c0-19.78,17.68-28.06,34.1-28.06c10.38,0,21.19,3.51,28.2,8.42c2.39,1.82,0.98,3.93,0.98,3.93
		l-6.74,9.54c-0.7,1.12-2.25,1.96-3.93,0.84c-4.49-2.95-9.54-5.89-18.52-5.89c-11.22,0-16.14,4.63-16.14,10.38
		c0,6.88,7.86,9.12,17.12,11.37c16,4.35,33.53,9.54,33.53,29.18c0,17.4-16.28,28.2-34.38,28.2c-13.61,0-25.26-3.93-35.08-11.08
		c-1.96-2.1-0.56-3.93-0.56-3.93l6.59-9.4C122.5,397.88,124.19,398.44,124.89,399z M275.02,411.21c0,2.81,4.91,10.94,10.94,10.94
		h3.93c1.54,0,2.81-1.26,2.81-2.81v-85.45l0,0c-0.14-1.4-1.26-2.53-2.67-2.53h-12.07c-1.4,0-2.67,1.12-2.67,2.53l0,0v7.02
		c-7.44-9.12-19.08-12.91-30.73-12.91c-26.52,0-47.99,21.47-47.99,47.99c0,26.52,21.47,47.99,47.99,47.99
		C255.94,424.11,268.71,419.62,275.02,411.21L275.02,411.21z M244.29,407.28c-16.84,0-30.59-14.03-30.59-31.29
		s13.75-31.29,30.59-31.29c16.84,0,30.59,14.03,30.59,31.29S261.13,407.28,244.29,407.28z M400.46,414.15v-44.2l0,0
		c0-24.98-15.71-41.81-40.83-41.81c-11.93,0-21.75,6.88-25.26,12.91v-0.14l0,0c0-6.03-4.91-9.54-10.94-9.54h-3.93
		c-1.54,0-2.81,1.26-2.81,2.81v77.17l0,0v8.28l0,0c0.14,1.4,1.26,2.53,2.67,2.53h12.07c0.14,0,0.42,0,0.56,0l0.28-0.14l0.28-0.14
		l0.28-0.14l0.14-0.14l0.28-0.28l0,0l0.28-0.42l0,0c0.28-0.42,0.42-0.98,0.56-1.4l0,0v-50.51c0-13.33,10.8-24.27,24.27-24.27
		c13.33,0,24.27,10.8,24.27,24.27v42.23l0,0v0.14v8.14l0,0c0.14,1.4,1.26,2.53,2.67,2.53h12.07c0.14,0,0.42,0,0.56,0h0.14l0.28-0.14
		l0.28-0.14l0.14-0.14l0.28-0.28h0.14l0.28-0.42l0,0c0.28-0.42,0.42-0.84,0.56-1.4l0,0l0,0L400.46,414.15L400.46,414.15z
		 M494.47,411.21c0,2.81,4.91,10.94,10.94,10.94h3.93c1.54,0,2.81-1.26,2.81-2.81v-85.45l0,0c-0.14-1.4-1.26-2.53-2.67-2.53h-12.21
		c-1.4,0-2.67,1.12-2.67,2.53l0,0v7.02c-7.44-9.12-19.08-12.91-30.73-12.91c-26.52,0-47.99,21.47-47.99,47.99
		c0,26.52,21.47,47.99,47.99,47.99C475.39,424.11,488.16,419.62,494.47,411.21L494.47,411.21z M463.88,407.28
		c-16.84,0-30.59-14.03-30.59-31.29s13.75-31.29,30.59-31.29s30.59,14.03,30.59,31.29C494.33,393.25,480.72,407.28,463.88,407.28z"
		/>
	
		<radialGradient id="SVGID_1_" cx="6.0031" cy="506.5937" r="2.0007" gradientTransform="matrix(64.1297 0 0 -59.2754 -128.2647 30214.2852)" gradientUnits="userSpaceOnUse">
		<stop  offset="0" style="stop-color:#FFB900"/>
		<stop  offset="0.6" style="stop-color:#F95D8F"/>
		<stop  offset="0.9991" style="stop-color:#F95353"/>
		<stop  offset="1" style="stop-color:#F95353"/>
	</radialGradient>
	<path class="st1" d="M311.36,182.64c-23.29,0-42.09,18.8-42.09,42.09s18.8,42.09,42.09,42.09s42.09-18.8,42.09-42.09
		C353.46,201.58,334.65,182.64,311.36,182.64z M202.06,182.64c-23.29,0-42.09,18.8-42.09,42.09s18.8,42.09,42.09,42.09
		s42.09-18.8,42.09-42.09C244.15,201.58,225.21,182.64,202.06,182.64z M298.88,130.02c0,23.29-18.8,42.09-42.09,42.09
		s-42.09-18.8-42.09-42.09s18.8-42.09,42.09-42.09C279.93,87.93,298.88,106.73,298.88,130.02z"/>
</g>
</svg>
