<svg xmlns="http://www.w3.org/2000/svg" viewBox="0 0 2054 500"><path d="M441.2 447.3h-73.5l-143-287.5L74.1 447.3H0L224.7 29.7l216.5 417.6zm-174.8-94.7c0 11.3-4.2 20.9-12.6 28.8-8.4 7.9-18.6 11.8-30.6 11.8-11.6 0-21.7-3.9-30.1-11.8-8.4-7.9-12.6-17.5-12.6-28.8s4.2-21 12.6-29.1c8.4-8 18.4-12.1 30.1-12.1 12 0 22.2 4 30.6 12.1 8.4 8.1 12.6 17.8 12.6 29.1zM798.1 49.2L581.6 470.4 368.2 49.2h75.1l140.4 272.6 144-272.5 70.4-.1zm366.7 398.6H871.7V49.2h289.5v56.5h-218V221h191.3v56H943.2v113.7h221.7l-.1 57.1zm433.1-197c0 62.1-18.7 109.9-56.1 143.5-39.8 35.7-99.1 53.5-177.9 53.5l-114.7-.5V49.2h114.7c155.9 0 234 67.2 234 201.6zm-64.9 0c0-94.9-55.2-142.4-165.6-142.4h-45.3v280.3h45.3c110.4-.1 165.6-46 165.6-137.9zm521 196.5h-73.6l-143-287.5-150.6 287.5h-74.1l224.7-417.1L2054 447.3zm-174.9-94.7c0 11.3-4.2 21-12.6 29-8.4 8.1-18.4 12.1-30.1 12.1-12 0-22.1-4-30.3-12.1s-12.3-17.7-12.3-29 4.1-21 12.3-29.1c8.2-8 18.3-12.1 30.3-12.1 11.7 0 21.7 4 30.1 12.1 8.4 8.1 12.6 17.8 12.6 29.1z"/></svg>