<?xml version="1.0" encoding="utf-8"?>
<!-- Generator: Adobe Illustrator 22.1.0, SVG Export Plug-In . SVG Version: 6.00 Build 0)  -->
<svg version="1.1" id="Layer_1" xmlns="http://www.w3.org/2000/svg" xmlns:xlink="http://www.w3.org/1999/xlink" x="0px" y="0px"
	 viewBox="0 0 160 29" style="enable-background:new 0 0 160 29;" xml:space="preserve">
<style type="text/css">
	.st0{fill:#1987C7;}
</style>
<path id="Columbia_logo_blue" class="st0" d="M8.6,17.2c0.8,0.8,0.8,2,0,2.8l-0.7,0.7c-0.8,0.8-2,0.8-2.8,0l-4.5-4.5
	c-0.8-0.8-0.8-2,0-2.8l0.7-0.7c0.8-0.8,2-0.8,2.8,0L8.6,17.2L8.6,17.2z M8.1,8.6c-0.8-0.8-2-0.8-2.8,0L4.6,9.3c-0.8,0.8-0.8,2,0,2.8
	l4.5,4.5c0.8,0.8,2,0.8,2.8,0l0.7-0.7c0.8-0.8,0.8-2,0-2.8L8.1,8.6L8.1,8.6z M20.1,12.6c-0.8-0.8-2-0.8-2.8,0l-0.7,0.7
	c-0.8,0.8-0.8,2,0,2.8l4.5,4.5c0.8,0.8,2,0.8,2.8,0l0.7-0.7c0.8-0.8,0.8-2,0-2.8L20.1,12.6L20.1,12.6z M24.2,8.5
	c-0.8-0.8-2-0.8-2.8,0l-0.7,0.7c-0.8,0.8-0.8,2,0,2.8l4.5,4.5c0.8,0.8,2,0.8,2.8,0l0.7-0.7c0.8-0.8,0.8-2,0-2.8L24.2,8.5L24.2,8.5z
	 M16.7,4.1c0.8-0.8,0.8-2,0-2.8L16,0.6c-0.8-0.8-2-0.8-2.8,0L8.7,5.1c-0.8,0.8-0.8,2,0,2.8l0.7,0.7c0.8,0.8,2,0.8,2.8,0L16.7,4.1
	L16.7,4.1z M20.7,8.1c0.8-0.8,0.8-2,0-2.8l-0.7-0.7c-0.8-0.8-2-0.8-2.8,0l-4.5,4.5c-0.8,0.8-0.8,2,0,2.8l0.7,0.7
	c0.8,0.8,2,0.8,2.8,0L20.7,8.1L20.7,8.1z M16.7,19.9c0.8-0.8,0.8-2,0-2.8L16,16.4c-0.8-0.8-2-0.8-2.8,0l-4.5,4.5
	c-0.8,0.8-0.8,2,0,2.8l0.7,0.7c0.8,0.8,2,0.8,2.8,0L16.7,19.9L16.7,19.9z M20.7,23.9c0.8-0.8,0.8-2,0-2.8l-0.7-0.7
	c-0.8-0.8-2-0.8-2.8,0L12.8,25c-0.8,0.8-0.8,2,0,2.8l0.7,0.7c0.8,0.8,2,0.8,2.8,0L20.7,23.9L20.7,23.9z M53.5,20
	c0.1,0.2,0.7,1.1,0.7,1.1c-0.3,1.4-1.2,3.3-1.2,3.3l-0.1,0.1c-3.3,1.3-8.5,2.4-14,0.2c-3.3-1.3-5.7-3.9-6.6-7.3
	c-1-3.5-0.3-7.3,1.9-10.3c2.4-3.2,6.2-5,11.4-5.3c2-0.1,6,0.4,8.2,1.7L54,3.5c0,0,0.1,5.5,0,5.7l-0.1,0.3c0,0-1.6,0.1-1.6,0.1
	L52.2,9c-0.3-1.6-1-5.8-6.9-5.5c-2.5,0.1-4.6,1.4-6.1,3.4c-1.9,2.5-2.4,5.8-1.6,9.6c0.8,3.6,3.6,5.9,5.7,6.8c0.9,0.3,3.7,1,5.8,0
	C50.9,22.4,52.7,21,53.5,20 M73.7,25.8l0-18.9c0-0.6,0-1.6-0.6-2.3c-0.1-0.1-1-0.8-1-0.8V3l5.1-1l0.5,0.3c0,0,0,20,0,20.3
	c0.1,1.9,1.4,2.1,1.4,2.1v1.2L73.7,25.8L73.7,25.8z M96.2,24.5c-0.9-0.2-1.4-1-1.4-2.3l0-12L94.4,10l-5.1,1v0.8c0,0,0.9,0.7,1,0.8
	c0.6,0.7,0.6,1.7,0.6,2.3l0,7.1c-1.7,1.3-3.2,1.7-4.3,1.2c-0.8-0.4-1.3-1.4-1.3-2.8c0,0,0-10.2,0-10.2L84.9,10l-5.1,1v0.8
	c0,0,0.9,0.7,1,0.8c0.7,0.7,0.7,1.7,0.6,2.3V21c0,1.2,0.1,1.6,0.2,2.1c0.3,1.3,1.1,2.2,2.2,2.6c1.8,0.7,4.4,0,7.1-1.8v1.7l5.6,0
	v-1.1L96.2,24.5L96.2,24.5z M121.6,24.5c-0.9-0.2-1.3-1-1.4-2.3l0-7.3c0-1.7-0.9-4.9-4.2-4.9c-2.5,0-4.1,1.5-5,2.3
	c-0.5-1.1-1.6-2.3-3.6-2.3c-1.6,0-3,0.6-4.4,1.8l0-1.5l-0.5-0.3l-5.1,1v0.8c0,0,0.9,0.7,1,0.8c0.6,0.7,0.6,1.7,0.6,2.3l0,10.7l5.6,0
	v-1.1l-0.3-0.1c-0.9-0.2-1.3-0.9-1.3-2.3c0,0,0-7.4,0-8.6c1-0.8,2-1,3-0.9c0.8,0.1,1.7,0.7,1.7,3.7c0,0,0,9.2,0,9.2l5.5,0v-1.1
	l-0.3-0.1c-0.9-0.2-1.3-0.9-1.4-2.3c0,0,0-7.3,0-7.3c0-0.2,0-0.8-0.1-1.2c1-0.9,2-1,3-0.9c0.8,0.1,1.7,0.7,1.7,3.7c0,0,0,9.2,0,9.2
	l5.5,0v-1.1L121.6,24.5L121.6,24.5z M71.9,17.9c0-2.3-0.8-4.4-2.2-5.8c-1.5-1.5-3.6-2.3-6.2-2.3c-4.8,0-8.4,3.5-8.4,8.1
	c0,4.9,3.3,8.1,8.4,8.1c2.4,0,4.6-0.8,6.1-2.3C71.1,22.1,71.9,20.1,71.9,17.9 M63.5,24.2c-3.1,0-4-2.4-4-6.4c0-2.9,0.9-6.4,4-6.4
	c3.1,0,4,3.5,4,6.4C67.5,21.8,66.6,24.2,63.5,24.2 M140.4,5.1c0-1.1,0.9-2.1,2.1-2.1c1.1,0,2.1,0.9,2.1,2.1s-0.9,2.1-2.1,2.1
	C141.3,7.2,140.4,6.2,140.4,5.1 M140.6,25.6l0-10.8c0-0.6,0-1.6-0.6-2.3c-0.1-0.1-1-0.8-1-0.8v-0.8l5.1-1l0.5,0.3c0,0,0,12,0,12
	c0,1.3,0.5,2.1,1.3,2.3l0.3,0.1v1.1L140.6,25.6L140.6,25.6z M137.7,13.7c-1.1-1.9-2.5-3.1-4.2-3.5c-2.4-0.6-4.8,0.5-6.3,1.3l0-9.3
	l-0.5-0.3l-5.1,1v0.8c0,0,0.9,0.7,1,0.8c0.6,0.7,0.6,1.6,0.6,2.3l0,17.5v0.2l0.2,0.1c2.9,1.5,6.7,1.7,9.5,0.6c3.1-1.3,4.5-3.5,5-5.1
	C138.9,17.6,138.5,15.1,137.7,13.7 M133.5,22.1c-0.9,1.5-2.7,2.4-4.1,2c-1.4-0.4-2.2-1.9-2.2-4.2c0,0,0-5.3,0-6.5c0,0,0.1,0,0.2-0.1
	c0.9-0.4,2.5-1.3,4.6-0.2c1.1,0.6,2,1.7,2.4,3.1C134.9,18.1,134.6,20.2,133.5,22.1 M160,24l-0.3-0.1c-0.2,0-0.6-0.6-0.6-1.5l0-7.1
	c0-2.1-0.7-3.7-1.9-4.5c-1.1-0.8-2.6-0.9-4.4-0.3c-2.1,0.7-5.2,3.4-5.7,4l-0.1,0.1l0,0.2c0,0.2,0.3,0.5,0.4,0.7l0.1,0.1
	c0,0,3.5,0,3.5,0s0-0.8,0-1c0-1.4,0.9-2.1,1.7-2.2c0.8-0.1,1.3-0.1,1.7,0.2c0.5,0.4,0.8,1.4,0.8,3l0,0.9l-7.3,3.2l-0.1,0.1l0,0.1
	c-0.7,2-0.5,3.6,0.4,4.7c1.5,1.7,5.2,1.9,10.6,0.7c0.4-0.1,1.3-0.2,1.3-0.2C160,25,160,24,160,24 M155.3,18.1l0,5.5
	c-1.2,0.8-2.4,0.9-3.3,0.2c-0.9-0.8-1.1-2.2-0.5-3.6L155.3,18.1L155.3,18.1z"/>
</svg>
