<?xml version="1.0" encoding="UTF-8"?>
<svg width="115px" height="21px" viewBox="0 0 115 21" version="1.1"
	xmlns="http://www.w3.org/2000/svg" xmlns:xlink="http://www.w3.org/1999/xlink">
	<defs>
		<path
			d="M12.8762369,20.2616041 C12.8762369,20.3456681 12.8582282,20.4197385 12.8216298,20.4820517 C12.7856124,20.5449527 12.7234533,20.5949209 12.6351524,20.6313682 C12.5468516,20.6678155 12.4295044,20.6966207 12.2848537,20.7177837 C12.1396221,20.7389466 11.9636013,20.7495281 11.7567915,20.7495281 C11.538944,20.7495281 11.3576949,20.7389466 11.2124633,20.7177837 C11.0672317,20.6966207 10.9481417,20.6678155 10.8546126,20.6313682 C10.7605025,20.5949209 10.6936959,20.5449527 10.6524501,20.4820517 C10.6106234,20.4197385 10.58971,20.3456681 10.58971,20.2616041 L10.58971,18.3886812 C9.85425704,19.1969891 9.08917678,19.8259996 8.29621204,20.2774763 C7.5032473,20.7277773 6.63476211,20.9541035 5.69191832,20.9541035 C4.66542111,20.9541035 3.78822202,20.7518796 3.06264476,20.3480195 C2.3370675,19.9441595 1.74916984,19.3986252 1.29778991,18.7114165 C0.847571834,18.0247957 0.518186481,17.2164878 0.310795703,16.2876686 C0.103404926,15.3594372 0,14.3812377 0,13.3524822 C0,12.1361992 0.12954662,11.0374884 0.388639861,10.0557617 C0.647733101,9.07521072 1.0305637,8.23868554 1.53887443,7.54618612 C2.04660423,6.85309884 2.67632861,6.32108529 3.42862849,5.94838187 C4.18034744,5.57744203 5.04825171,5.3899146 6.03408406,5.3899146 C6.85260956,5.3899146 7.60200481,5.57097556 8.28110795,5.9330975 C8.95963016,6.29463157 9.63118125,6.82723299 10.2951803,7.53031389 L10.2951803,0.57416314 C10.2951803,0.500680605 10.3126081,0.430725231 10.3486255,0.361357717 C10.3852239,0.293753784 10.455516,0.240846359 10.5595019,0.204399021 C10.6623259,0.167951683 10.7947771,0.136795088 10.9551128,0.109753515 C11.1160295,0.0838876627 11.3210966,0.0703668761 11.5697331,0.0703668761 C11.8288264,0.0703668761 12.0414455,0.0838876627 12.2075905,0.109753515 C12.3731546,0.136795088 12.5027012,0.167951683 12.5962303,0.204399021 C12.6897595,0.240846359 12.7594707,0.293753784 12.8065258,0.361357717 C12.8529999,0.430725231 12.8762369,0.500680605 12.8762369,0.57416314 L12.8762369,20.2616041 Z M10.2951803,10.2997237 C9.59981121,9.42910261 8.92884105,8.76540835 8.28110795,8.30922877 C7.63279392,7.85363705 6.95659542,7.6249594 6.25135059,7.6249594 C5.59838915,7.6249594 5.04360429,7.7819181 4.58699603,8.09759907 C4.13096869,8.41151646 3.76091847,8.82595796 3.47510261,9.33974785 C3.1904486,9.8541256 2.98305783,10.4361073 2.85351121,11.0874565 C2.72280273,11.73763 2.65948174,12.3983849 2.65948174,13.0703092 C2.65948174,13.7833837 2.71350791,14.4811739 2.82214117,15.162504 C2.93135536,15.8450098 3.12015649,16.4510937 3.39028734,16.9807558 C3.65983725,17.510418 4.01710708,17.9354409 4.46325867,18.2552369 C4.90882933,18.5750329 5.4682616,18.7349309 6.14271732,18.7349309 C6.48488306,18.7349309 6.81310656,18.6879021 7.12971153,18.5932566 C7.44573557,18.4986111 7.77047351,18.3416524 8.10218257,18.1212048 C8.43389163,17.9007572 8.78070478,17.6150571 9.1443648,17.2635166 C9.50686296,16.9119762 9.88969356,16.479311 10.2951803,15.9649333 L10.2951803,10.2997237 Z M30.7902689,12.7807292 C30.7902689,13.934699 30.6398089,14.9975504 30.3400508,15.9675198 C30.03855,16.9380772 29.5906556,17.7751902 28.994044,18.4770954 C28.3985943,19.1807642 27.6521037,19.7292378 26.7551531,20.1225163 C25.8582025,20.5157949 24.8189249,20.7121402 23.6373203,20.7121402 C22.4859239,20.7121402 21.4832447,20.5393093 20.6281208,20.1930596 C19.772416,19.8468099 19.0596191,19.3430136 18.4891493,18.6822586 C17.9192603,18.0215037 17.4940221,17.2190744 17.2145964,16.2743829 C16.9340089,15.3302793 16.7940056,14.2603736 16.7940056,13.06349 C16.7940056,11.9101082 16.9421419,10.8484325 17.2372525,9.8772873 C17.5335251,8.90731783 17.9785148,8.07079264 18.5751264,7.36771174 C19.1705761,6.66463084 19.914743,6.11909649 20.8064653,5.73052084 C21.6981875,5.34312092 22.7403697,5.14853916 23.9318501,5.14853916 C25.0832465,5.14853916 26.0859257,5.32137009 26.9410496,5.66761979 C27.7973353,6.0138695 28.5095513,6.51707791 29.0800212,7.17842073 C29.6499101,7.83976355 30.077472,8.64219284 30.3632879,9.58570859 C30.647361,10.5304001 30.7902689,11.5956029 30.7902689,12.7807292 M28.1313681,12.9535602 C28.1313681,13.7724495 28.0471338,14.5225593 27.8798269,15.2044772 C27.7119391,15.8863951 27.4511031,16.4736676 27.0955761,16.9668823 C26.7394681,17.4600971 26.2846026,17.843382 25.7298178,18.1155613 C25.1756138,18.3889164 24.5214905,18.5247121 23.7686097,18.5247121 C22.9419512,18.5247121 22.2523914,18.3753956 21.6976066,18.0761747 C21.1434027,17.7775417 20.7013176,17.3730938 20.3713513,16.8645946 C20.0419659,16.3555076 19.8066907,15.760593 19.6661064,15.0786751 C19.5237794,14.3967572 19.4534873,13.6672226 19.4534873,12.8906591 C19.4534873,12.0829391 19.5400454,11.3381201 19.7125806,10.65679 C19.8851158,9.97428424 20.1494373,9.38407252 20.5043835,8.88556699 C20.8604914,8.38823719 21.3130332,8.00201299 21.8625897,7.72924581 C22.4109844,7.45647864 23.0674314,7.32009506 23.8313498,7.32009506 C24.6580083,7.32009506 25.3487299,7.46999943 25.9023529,7.76863245 C26.4571378,8.06785334 26.8968992,8.47465266 27.2210562,8.98785468 C27.5446323,9.50223243 27.7775838,10.0994985 27.9199108,10.7825921 C28.061076,11.4645101 28.1313681,12.1881661 28.1313681,12.9535602 Z M46.5892635,1.40757267 C46.5892635,1.6068573 46.5782259,1.78027609 46.5573125,1.9266533 C46.5369801,2.07361837 46.5038673,2.19177829 46.4562313,2.28054519 C46.4097572,2.37048781 46.3534073,2.43574031 46.2860199,2.47747839 C46.2174705,2.52039219 46.142531,2.54037944 46.0600394,2.54037944 L40.4000721,2.54037944 L40.4000721,20.197351 C40.4000721,20.281415 40.3791587,20.3548975 40.337332,20.4177986 C40.2960862,20.4806996 40.2234704,20.5306677 40.1194845,20.5671151 C40.0160796,20.6035624 39.8784,20.6353069 39.7070267,20.6617606 C39.5362343,20.6876264 39.3207105,20.7011472 39.0621982,20.7011472 C38.8129807,20.7011472 38.6009425,20.6876264 38.4243409,20.6617606 C38.2483201,20.6353069 38.1077359,20.6035624 38.0049119,20.5671151 C37.901507,20.5306677 37.8283102,20.4806996 37.7870644,20.4177986 C37.7452377,20.3548975 37.7243244,20.281415 37.7243244,20.197351 L37.7243244,2.54037944 L32.064357,2.54037944 C31.9812845,2.54037944 31.906345,2.52039219 31.8383766,2.47747839 C31.7709891,2.43574031 31.716382,2.37048781 31.6751362,2.28054519 C31.6338904,2.19177829 31.5996158,2.07361837 31.574055,1.9266533 C31.5479133,1.78027609 31.5357139,1.6068573 31.5357139,1.40757267 C31.5357139,1.20828803 31.5479133,1.03192994 31.574055,0.880261991 C31.5996158,0.728006177 31.6338904,0.604555517 31.6751362,0.510497872 C31.716382,0.415852366 31.7709891,0.347660573 31.8383766,0.305334632 C31.906345,0.264772272 31.9812845,0.243021442 32.064357,0.243021442 L46.0600394,0.243021442 C46.142531,0.243021442 46.2174705,0.264772272 46.2860199,0.305334632 C46.3534073,0.347660573 46.4097572,0.415852366 46.4562313,0.510497872 C46.5038673,0.604555517 46.5369801,0.728006177 46.5573125,0.880261991 C46.5782259,1.03192994 46.5892635,1.20828803 46.5892635,1.40757267 Z M111.438617,0.158957421 C112.332663,0.158957421 113.026289,0.860274741 113.026289,1.73677443 C113.026289,2.63090992 112.332663,3.3239972 111.428741,3.3239972 C110.536438,3.3239972 109.82306,2.63090992 109.82306,1.73677443 C109.82306,0.860274741 110.536438,0.158957421 111.428741,0.158957421 L111.438617,0.158957421 Z M111.420027,0.476401975 C110.735696,0.476401975 110.222157,1.04427501 110.222157,1.73677443 C110.222157,2.43867961 110.735696,2.99655902 111.438617,2.99655902 C112.12411,3.00655264 112.627774,2.43867961 112.627774,1.73677443 C112.627774,1.04427501 112.12411,0.476401975 111.428741,0.476401975 L111.420027,0.476401975 Z M111.182428,2.55390022 L110.821092,2.55390022 L110.821092,0.985488982 C110.963419,0.956683828 111.163258,0.928466534 111.420027,0.928466534 C111.714557,0.928466534 111.847008,0.976671078 111.962032,1.05309291 C112.047428,1.12069685 112.113654,1.24532323 112.113654,1.39052472 C112.113654,1.57276141 111.980621,1.70738141 111.790658,1.76499172 L111.790658,1.78497897 C111.94228,1.83259565 112.028838,1.95780989 112.075893,2.1694396 C112.12411,2.40987445 112.151414,2.50569568 112.190336,2.55390022 L111.799953,2.55390022 C111.752898,2.49687777 111.724433,2.36225777 111.676216,2.17884536 C111.648331,2.00601444 111.553059,1.92900474 111.353802,1.92900474 L111.182428,1.92900474 L111.182428,2.55390022 Z M111.191723,1.66858263 L111.363096,1.66858263 C111.562354,1.66858263 111.724433,1.60215442 111.724433,1.43872926 C111.724433,1.29411563 111.619866,1.19770654 111.391562,1.19770654 C111.29629,1.19770654 111.230064,1.20652445 111.191723,1.21710593 L111.191723,1.66858263 Z M114.397741,19.646761 C114.480232,19.8777901 114.524383,20.063554 114.530773,20.2052283 C114.534839,20.3469026 114.495917,20.454481 114.413426,20.5279636 C114.329772,20.6014461 114.192674,20.6478871 114.001549,20.6696379 C113.809262,20.690213 113.552492,20.7007945 113.231821,20.7007945 C112.909988,20.7007945 112.653799,20.6931523 112.461512,20.6772801 C112.269807,20.6619957 112.124575,20.635542 112.025817,20.5985068 C111.927641,20.5626473 111.855025,20.5126792 111.808551,20.4491903 C111.761496,20.3868771 111.717345,20.307516 111.6761,20.2134583 L109.950167,15.2560325 L101.583663,15.2560325 L99.9349932,20.1499694 C99.9036232,20.2452028 99.8623774,20.3263275 99.810675,20.3939314 C99.7589725,20.4627111 99.683452,20.5197335 99.5852755,20.5673502 C99.4865179,20.614379 99.3465146,20.6478871 99.1652656,20.6696379 C98.9834356,20.690213 98.7481603,20.7007945 98.458278,20.7007945 C98.1567771,20.7007945 97.9110451,20.6878616 97.7193394,20.6619957 C97.5270527,20.635542 97.3928587,20.5861617 97.3144336,20.5126792 C97.2365894,20.4391967 97.200572,20.3310304 97.2058003,20.1893561 C97.2110287,20.0482696 97.2551791,19.86133 97.3376706,19.6314766 L104.087456,0.714720535 C104.128702,0.600087779 104.182728,0.504854413 104.250697,0.431371877 C104.318084,0.358477202 104.416261,0.300866894 104.546388,0.259128814 C104.675354,0.216802873 104.841499,0.187409859 105.043661,0.171537631 C105.245824,0.156841124 105.502593,0.14802322 105.813389,0.14802322 C106.145098,0.14802322 106.419876,0.156841124 106.637724,0.171537631 C106.855571,0.187409859 107.031592,0.216802873 107.166367,0.259128814 C107.301142,0.300866894 107.405128,0.360828643 107.477744,0.439014061 C107.549778,0.517787339 107.60729,0.615372146 107.648536,0.730592762 L114.397741,19.646761 Z M105.735545,2.94976534 L105.71986,2.94976534 L102.252309,13.099761 L109.25015,13.099761 L105.735545,2.94976534 Z M95.3201708,20.1972922 C95.3201708,20.2813562 95.3050667,20.3554266 95.2736967,20.4183276 C95.2423267,20.4806408 95.1749392,20.5329604 95.0715343,20.5752863 C94.9681293,20.6170244 94.8234786,20.6487689 94.6358394,20.6699318 C94.4493619,20.690507 94.2007254,20.7005006 93.8893487,20.7005006 C93.6197988,20.7005006 93.3996277,20.690507 93.2282543,20.6699318 C93.0574619,20.6487689 92.9203633,20.614673 92.8163774,20.5676442 C92.7129725,20.5206153 92.6322237,20.4541871 92.5752929,20.370711 C92.518943,20.2860591 92.4684024,20.1814199 92.4277375,20.0556178 L90.5769056,15.2563265 C90.3590581,14.7107921 90.1336586,14.2093473 89.9007071,13.7531677 C89.6677555,13.2969881 89.3894917,12.9037096 89.0688202,12.5721564 C88.7475679,12.2423668 88.3688038,11.984884 87.9336898,11.8020594 C87.4974139,11.6174713 86.97458,11.526353 86.3628644,11.526353 L84.5741915,11.526353 L84.5741915,20.1972922 C84.5741915,20.2813562 84.5503736,20.3554266 84.5038994,20.4183276 C84.4580062,20.4806408 84.3859713,20.5300211 84.286052,20.5676442 C84.1878754,20.6035036 84.0531004,20.6358359 83.8828889,20.6617018 C83.7115156,20.6881555 83.4959919,20.7005006 83.2368986,20.7005006 C82.9772245,20.7005006 82.7628626,20.6881555 82.5914892,20.6617018 C82.4206968,20.6358359 82.2835982,20.6035036 82.1796123,20.5676442 C82.0756265,20.5300211 82.0030106,20.4806408 81.9617649,20.4183276 C81.9205191,20.3554266 81.8996057,20.2813562 81.8996057,20.1972922 L81.8996057,1.34461283 C81.8996057,0.934874211 82.0059153,0.649761973 82.2185344,0.486924674 C82.4311535,0.324087375 82.6559721,0.242962656 82.8947329,0.242962656 L87.1715141,0.242962656 C87.6798249,0.242962656 88.1015775,0.255895582 88.4390959,0.282349295 C88.7754523,0.308803008 89.078696,0.337608162 89.3488268,0.368764757 C90.1266875,0.505736203 90.8127617,0.720305207 91.4099542,1.01364749 C92.004823,1.30757763 92.5055817,1.68028105 92.9099066,2.13175775 C93.3136505,2.58205873 93.6168942,3.09937578 93.8190566,3.6807696 C94.0223809,4.26333915 94.1228812,4.90587044 94.1228812,5.6095392 C94.1228812,6.29145713 94.0316757,6.90224396 93.8510076,7.44248757 C93.6691776,7.98331903 93.4071797,8.46007372 93.065014,8.87451522 C92.7228482,9.28836886 92.313295,9.64872722 91.8369352,9.95206312 C91.3605755,10.2571626 90.8261231,10.5134697 90.2347398,10.7233358 C90.5670298,10.8708887 90.8673688,11.0560647 91.1374997,11.2823909 C91.4070496,11.5081293 91.6580099,11.778545 91.8915423,12.0930503 C92.1244939,12.4075555 92.3440841,12.7690896 92.5520558,13.1788282 C92.7588657,13.587979 92.9668374,14.0500372 93.1748091,14.5638271 L94.9780051,19.0486132 C95.1232367,19.4260195 95.216185,19.6917323 95.2585926,19.8428124 C95.2992575,19.9950682 95.3201708,20.1132282 95.3201708,20.1972922 M91.2926071,5.89288786 C91.2926071,5.09516145 91.1165863,4.4208857 90.763383,3.87006061 C90.4119224,3.31982339 89.8199583,2.9230177 88.9909761,2.68258284 C88.7313019,2.6091003 88.4390959,2.55560502 88.1131961,2.52503628 C87.7855535,2.49329183 87.3574106,2.4774196 86.8299293,2.4774196 L84.5741915,2.4774196 L84.5741915,9.33833699 L87.1866182,9.33833699 C87.8918631,9.33833699 88.5018359,9.25250938 89.0147941,9.0790906 C89.5271713,8.90625968 89.9553142,8.66523696 90.2974799,8.35484673 C90.6390647,8.04622008 90.8906059,7.68115884 91.0515226,7.26083874 C91.2124392,6.84169436 91.2926071,6.38551477 91.2926071,5.89288786 M78.2900767,20.19788 C78.2900767,20.2813562 78.2743917,20.3554266 78.2436026,20.4183276 C78.2116516,20.4806408 78.1448451,20.5329604 78.0408592,20.5752863 C77.9374543,20.6170244 77.7928036,20.6487689 77.6051643,20.6699318 C77.4192678,20.690507 77.1700503,20.7005006 76.8598355,20.7005006 C76.5891238,20.7005006 76.3695335,20.690507 76.1981602,20.6699318 C76.0273678,20.6487689 75.8902691,20.614673 75.7862833,20.5676442 C75.6828783,20.5206153 75.6027105,20.454775 75.5451988,20.370711 C75.4888489,20.2866469 75.4388892,20.1820078 75.3976434,20.0562057 L73.5473924,15.2563265 C73.3295449,14.71138 73.1035645,14.2093473 72.8706129,13.7531677 C72.6376614,13.297576 72.3599785,12.9037096 72.0381452,12.5727443 C71.7168928,12.2423668 71.3381287,11.9854718 70.9030147,11.8020594 C70.4673198,11.6174713 69.9444859,11.5269408 69.3333512,11.5269408 L67.5446783,11.5269408 L67.5446783,20.19788 C67.5446783,20.2813562 67.5208603,20.3554266 67.4743862,20.4183276 C67.4279121,20.4806408 67.3552963,20.530609 67.2565388,20.5676442 C67.1577813,20.6035036 67.0230063,20.6352481 66.8527948,20.6617018 C66.6802596,20.6881555 66.463574,20.7005006 66.2044808,20.7005006 C65.9459685,20.7005006 65.7310256,20.6881555 65.5596523,20.6617018 C65.3888599,20.6352481 65.2511803,20.6035036 65.1477754,20.5676442 C65.0432086,20.530609 64.9705928,20.4806408 64.9299279,20.4183276 C64.8886822,20.3554266 64.8677688,20.2813562 64.8677688,20.19788 L64.8677688,1.34520069 C64.8677688,0.934874211 64.9740784,0.649174113 65.1861165,0.486924674 C65.3987357,0.324087375 65.6235542,0.242962656 65.862315,0.242962656 L70.14142,0.242962656 C70.6491498,0.242962656 71.0709025,0.255895582 71.4084208,0.281761435 C71.7453582,0.308803008 72.0491828,0.337608162 72.3187327,0.368764757 C73.0965934,0.505736203 73.7820867,0.720305207 74.3792792,1.01364749 C74.9753098,1.30757763 75.4754876,1.68028105 75.8798124,2.13175775 C76.2841373,2.58205873 76.5868001,3.09878792 76.7895434,3.6807696 C76.9917059,4.26392701 77.0922062,4.9064583 77.0922062,5.6095392 C77.0922062,6.29145713 77.0010007,6.90224396 76.8209135,7.44248757 C76.6385025,7.98331903 76.3776665,8.46007372 76.0355008,8.87451522 C75.6927541,9.28895672 75.2832009,9.64872722 74.8068411,9.95206312 C74.3299004,10.2571626 73.7960289,10.5134697 73.2052266,10.7239237 C73.5363548,10.8708887 73.8372747,11.0566526 74.1068246,11.2829788 C74.3763745,11.5081293 74.6273348,11.778545 74.8608673,12.0930503 C75.0943998,12.4081434 75.3145709,12.7690896 75.5219617,13.1794161 C75.7293525,13.5885668 75.9361623,14.0500372 76.144134,14.5632392 L77.94733,19.0486132 C78.0937235,19.4266073 78.1860908,19.6917323 78.2279176,19.8434003 C78.2697443,19.9950682 78.2900767,20.113816 78.2900767,20.19788 M74.261932,5.8923 C74.261932,6.38610263 74.1817641,6.84169436 74.0208475,7.2614266 C73.8605118,7.6817467 73.6089706,8.04563222 73.2673858,8.35484673 C72.92522,8.66523696 72.4970772,8.90625968 71.984119,9.07967846 C71.4711609,9.25250938 70.8617689,9.33833699 70.157105,9.33833699 L67.5446783,9.33833699 L67.5446783,2.4774196 L69.7992543,2.4774196 C70.3278974,2.4774196 70.7548784,2.49387969 71.082521,2.52503628 C71.4084208,2.55619288 71.7006269,2.60851244 71.960301,2.68199498 C72.7898641,2.92360556 73.3812474,3.31923553 73.7332889,3.87064847 C74.0859113,4.4208857 74.261932,5.09574931 74.261932,5.8923 Z M60.9008538,19.4888617 C60.9008538,19.6775649 60.8903971,19.8439294 60.8694837,19.9850158 C60.8485704,20.1266902 60.8131339,20.2448501 60.7614314,20.3389077 C60.709148,20.4335532 60.6493126,20.5023329 60.5819251,20.5434831 C60.5151185,20.585809 60.4395981,20.6063841 60.3565256,20.6063841 L50.7003645,20.6063841 C50.4621846,20.6063841 50.237366,20.5258473 50.024166,20.3624221 C49.8115469,20.1995848 49.7058183,19.9150604 49.7058183,19.504734 L49.7058183,1.34455404 C49.7058183,0.935403286 49.8115469,0.649703187 50.024166,0.486278028 C50.237366,0.324028589 50.4621846,0.24290387 50.7003645,0.24290387 L60.2473114,0.24290387 C60.3309648,0.24290387 60.4053234,0.26406684 60.4738728,0.30580492 C60.5412602,0.347543001 60.5952864,0.416322654 60.6371131,0.510380299 C60.677778,0.605025805 60.7120526,0.722597862 60.7381943,0.864272191 C60.7637551,1.00653438 60.7765355,1.18171675 60.7765355,1.39158287 C60.7765355,1.58087388 60.7637551,1.74606262 60.7381943,1.88773695 C60.7120526,2.02882342 60.677778,2.14463189 60.6371131,2.23339879 C60.5952864,2.32275356 60.5412602,2.38859391 60.4738728,2.43033199 C60.4053234,2.47207007 60.3309648,2.49323304 60.2473114,2.49323304 L52.3798232,2.49323304 L52.3798232,8.88209862 L59.1296087,8.88209862 C59.2126812,8.88209862 59.2870398,8.90620089 59.3544273,8.95322971 C59.4212339,9.00025854 59.4781647,9.06668675 59.5246388,9.14957505 C59.5716938,9.23481479 59.6053876,9.34944755 59.62572,9.49582476 C59.6466334,9.64337769 59.6565091,9.81620861 59.6565091,10.0154932 C59.6565091,10.2041964 59.6466334,10.3670337 59.62572,10.5034173 C59.6053876,10.6398009 59.5716938,10.7497307 59.5246388,10.8337948 C59.4781647,10.9178588 59.4212339,10.9778205 59.3544273,11.0148557 C59.2870398,11.0513031 59.2126812,11.0707025 59.1296087,11.0707025 L52.3798232,11.0707025 L52.3798232,18.356055 L60.3565256,18.356055 C60.4395981,18.356055 60.5151185,18.3772179 60.5819251,18.4195439 C60.6493126,18.461282 60.709148,18.5271223 60.7614314,18.6164771 C60.8131339,18.705244 60.8485704,18.8198767 60.8694837,18.9621389 C60.8903971,19.1032254 60.9008538,19.2795835 60.9008538,19.4888617 Z"
			id="path-1"></path>
	</defs>
	<g stroke="none" stroke-width="1" fill="none" fill-rule="evenodd">
		<g id="branding-/-logo-/-logotype">
			<g id="Group-6">
				<g id="ICONS/logo-primary">
					<mask id="mask-2" fill="white">
						<use xlink:href="#path-1"></use>
					</mask>
					<use id="Fill-16" fill="#FFFFFF" xlink:href="#path-1"></use>
					<g id="COLORS/#D1D1D1-light-grey" mask="url(#mask-2)" fill="#364657">
						<g transform="translate(0.000000, -0.517317)"
							id="STYLES/color-swatch/colors/#D1D1D1-light-grey">
							<rect x="0" y="0" width="115.023457" height="22.2446332"></rect>
						</g>
					</g>
					<path
						d="M19.7645735,2.45296461 C19.2173407,2.45531605 19.2202453,1.66875899 19.2190835,1.34837514 C19.2173407,1.00741617 19.2173407,0.2431978 19.7645735,0.2431978 L27.8133108,0.2431978 C28.3617055,0.2431978 28.3617055,1.00741617 28.3593818,1.34837514 C28.357639,1.66875899 28.3617055,2.45531605 27.8133108,2.45296461 L19.7645735,2.45296461 Z"
						id="Fill-1" fill="#BD8BCA"></path>
				</g>
			</g>
		</g>
	</g>
</svg>