<?xml version="1.0" encoding="utf-8"?>
<!-- Generator: Adobe Illustrator 19.2.1, SVG Export Plug-In . SVG Version: 6.00 Build 0)  -->
<svg version="1.1" id="layer" xmlns="http://www.w3.org/2000/svg" xmlns:xlink="http://www.w3.org/1999/xlink" x="0px" y="0px"
	 viewBox="0 0 652 652" style="enable-background:new 0 0 652 652;" xml:space="preserve">
<style type="text/css">
	.st0{fill:#4299D9;}
	.st1{fill:#FACA05;}
</style>
<path d="M113.8,324.9c0.5,1.5,2.1,5,5.5,5c2.4,0,3.9-1.6,3.9-4.1c0-2.7-2.1-3.8-4.1-4.8c-1-0.5-5.3-2-5.3-5.8c0-3.1,2.4-5.8,6.5-5.8
	c0.9,0,2,0.2,2.6,0.4c0.4,0.1,0.9,0.3,1.2,0.3c0.1,1.1,0.3,2.4,0.6,4.3l-0.8,0.1c-0.5-1.9-1.4-4.1-4.3-4.1c-2.3,0-3.4,1.6-3.4,3.5
	c0,2.3,1.7,3.4,4.1,4.5c2.1,0.9,5.4,2.2,5.4,6.2c0,3.7-3,6.4-7,6.4c-1.1,0-2.2-0.2-3-0.5c-0.8-0.3-1.4-0.5-1.7-0.7
	c-0.3-0.8-0.6-3.1-0.9-4.8L113.8,324.9z M129.9,327.7c0,1.8-0.2,1.9-2.3,2.1v0.7h6.9v-0.7c-1.9-0.2-2.1-0.3-2.1-2.1v-8
	c1-0.8,2.3-1.5,3.6-1.5c2.2,0,2.9,1.5,2.9,3.3v6.2c0,1.8-0.2,1.9-2.2,2.1v0.7h6.7v-0.7c-1.9-0.2-2-0.3-2-2.1v-7.1
	c0-0.3,0-0.5-0.1-0.9c1.2-1,2.4-1.5,3.5-1.5c2.3,0,3,1.6,3,3.4v6.1c0,1.8-0.2,1.9-2.3,2.1v0.7h6.7v-0.7c-1.8-0.2-2-0.3-2-2.1v-7.1
	c0-2.5-1.4-4.2-4-4.2c-1,0-1.8,0.3-2.8,0.9c-0.5,0.3-1.5,0.9-2.4,1.6c-0.6-1.6-2-2.5-3.6-2.5c-1.1,0-1.9,0.3-2.9,0.9
	c-0.9,0.5-1.6,1-2.2,1.4v-2.4c-1.6,0.6-3.2,1-4.6,1.3v0.6c2.1,0.3,2.2,0.3,2.2,2.2V327.7z M159,310.6c0-1-0.7-1.7-1.6-1.7
	c-0.9,0-1.6,0.8-1.6,1.7c0,1,0.8,1.7,1.6,1.7C158.2,312.3,159,311.6,159,310.6 M158.5,316.3c-1.6,0.6-3.2,1-4.6,1.3v0.6
	c2.1,0.3,2.2,0.3,2.2,2.2v7.3c0,1.8-0.2,1.9-2.3,2.1v0.7h7v-0.7c-2.1-0.2-2.3-0.3-2.3-2.1V316.3z M166.7,317.9h3.5
	c0.4-0.3,0.5-0.9,0.2-1.2h-3.7v-4.1h-0.4l-2.1,2.1v2h-1.5l-0.9,0.9l0.1,0.3h2.3v9.1c0,2.5,1.1,3.8,3.1,3.8c0.2,0,0.6-0.1,1-0.3
	l2.6-1.3l-0.3-0.7c-0.6,0.3-1.3,0.6-1.9,0.6c-0.9,0-2-0.4-2-2.9V317.9z M176.4,308c-1.2,0.3-3.2,0.8-4.7,1.1v0.6
	c2.2,0.2,2.3,0.2,2.3,2.1v15.8c0,1.8-0.2,1.9-2.2,2.1v0.7h6.7v-0.7c-1.9-0.2-2.1-0.3-2.1-2.1v-8.1c0.8-0.9,2-1.4,3.3-1.5
	c2.3,0,3.1,1.5,3.1,3.8v5.8c0,1.8-0.2,1.9-2.2,2.1v0.7h6.7v-0.8c-1.9-0.2-2.1-0.3-2.1-2.1v-6.7c0-2.8-1.6-4.6-4.4-4.6
	c-1.7,0.1-3.4,1.1-4.5,2.2V308z M189.2,326.3c0,1.2,0.2,3,0.4,3.5c0.6,0.5,2.1,1.2,3.7,1.2c2.4,0,5.1-1.4,5.1-4.3
	c0-2.1-1.5-3.4-3.8-4.3c-1.4-0.6-2.8-1.5-2.8-2.8c0-1,0.7-2.2,2.1-2.2c1.2,0,2.2,0.7,3.2,2.8l0.8-0.2c-0.1-0.5-0.4-2.3-0.7-3
	c-0.6-0.3-1.5-0.5-2.7-0.5c-2.8,0-4.7,1.9-4.7,4.2c0,2.1,1.7,3.2,3.8,4.1c1.7,0.8,2.5,1.7,2.5,3c0,1.6-1.1,2.3-2.3,2.3
	c-1.9,0-3.3-2-3.8-3.9L189.2,326.3z M207.5,330.9c-4.5,0-7-3.6-7-6.9c0-5.3,4.1-7.6,7-7.6c4,0,6.9,3.1,6.9,7
	C214.4,328.4,210.7,330.9,207.5,330.9 M207.9,329.9c2,0,3.6-1.6,3.6-5.8c0-3.5-1.5-6.8-4.4-6.8c-2.1,0-3.7,2.2-3.7,5.5
	C203.4,326.9,205.1,329.9,207.9,329.9 M221.3,316.3c-1.6,0.6-3.2,1-4.6,1.3v0.6c2.1,0.3,2.2,0.3,2.2,2.2v7.3c0,1.8-0.2,1.9-2.3,2.1
	v0.7h6.9v-0.7c-1.9-0.2-2-0.3-2-2.1v-8c1-0.8,2.2-1.5,3.5-1.5c2.3,0,3,1.6,3,3.4v6.1c0,1.8-0.2,1.9-2.3,2.1v0.7h6.7v-0.7
	c-1.8-0.2-2-0.3-2-2.1v-7.1c0-2.5-1.4-4.2-4-4.2c-1,0-1.8,0.3-2.7,0.9c-0.8,0.5-1.5,1-2.1,1.4V316.3z M239,310.6
	c0-1-0.7-1.7-1.6-1.7c-0.9,0-1.6,0.8-1.6,1.7c0,1,0.8,1.7,1.6,1.7C238.3,312.3,239,311.6,239,310.6 M238.6,316.3
	c-1.6,0.6-3.2,1-4.6,1.3v0.6c2.1,0.3,2.2,0.3,2.2,2.2v7.3c0,1.8-0.2,1.9-2.3,2.1v0.7h7v-0.7c-2.1-0.2-2.3-0.3-2.3-2.1V316.3z
	 M251.8,330.9c-1.1-0.2-1.6-1.3-1.7-2.1c-1.3,0.9-3,2.1-3.7,2.1c-2.3,0-3.8-1.9-3.8-3.6c0-1.5,0.8-2.5,2.4-3.2
	c1.6-0.6,4.2-1.6,5.1-2.2v-1.1c0-2-0.9-3-2.6-3c-1.6,0-2.2,1.3-2.6,2.7c-0.1,0.4-0.4,0.6-0.7,0.6c-0.5,0-1.4-0.5-1.4-1.1
	c0-0.4,0.4-0.9,1.1-1.4c0.8-0.6,2.6-1.8,4.9-2.2c0.9,0,1.9,0.3,2.5,0.8c1,0.8,1.2,1.9,1.2,3.1v7.1c0,1.2,0.4,1.7,0.9,1.7
	c0.3,0,0.8-0.1,1.4-0.4l0.3,0.7L251.8,330.9z M250,322.8c-0.7,0.3-2.6,1.1-3.2,1.5c-1.1,0.6-1.6,1.2-1.6,2.4c0,1.7,1.1,2.5,2.1,2.5
	c0.7,0,1.9-0.6,2.8-1.2V322.8z M260.9,316.3c-1.6,0.6-3.2,1-4.6,1.3v0.6c2.1,0.3,2.2,0.3,2.2,2.2v7.3c0,1.8-0.2,1.9-2.3,2.1v0.7h6.9
	v-0.7c-1.9-0.2-2-0.3-2-2.1v-8c1-0.8,2.2-1.5,3.5-1.5c2.3,0,3,1.6,3,3.4v6.1c0,1.8-0.2,1.9-2.3,2.1v0.7h6.7v-0.7
	c-1.8-0.2-2-0.3-2-2.1v-7.1c0-2.5-1.4-4.2-4-4.2c-1,0-1.8,0.3-2.7,0.9c-0.8,0.5-1.5,1-2.1,1.4V316.3z M116.3,341.6l-0.2,0.7
	c2.8,0.1,3.3,0.8,2.5,4.6l-1.3,6.9c-0.6,3.3-1,5-1.4,6c-0.4,1.1-1.3,1.6-3,1.6l-0.1,0.7h7.6l0.1-0.7c-2.1-0.1-2.9-0.5-2.8-1.7
	c0.1-0.9,0.3-2.6,0.9-6l1.6-8.3h0.1l10.2,16.9h0.8l2.3-12.4c0.6-3.3,1.1-5.1,1.4-6.1c0.3-1.1,1.3-1.5,3-1.6l0.1-0.7h-7.6l-0.1,0.7
	c2.1,0.1,2.9,0.5,2.8,1.6c-0.1,1-0.3,2.7-0.9,6.1l-1.5,8.1h-0.1l-10-16.5H116.3z M145.1,356.7L145.1,356.7c-1.4,1.7-2.9,3.2-4.4,4.4
	c-0.5,0.4-2.2,1.5-2.7,1.5c-0.7,0-1.8-0.6-1.8-3.4c0-3.3,1.5-6.7,3.5-8.5c1.6-1.5,4.2-2.7,6.2-2.7c0.5,0,1,0.1,1.7,0.2
	c0.4,0.1,0.9,0.2,1.2,0.2l0.2,0.1c-0.7,3.2-1.5,6.8-2.1,10.4c-0.2,1-0.2,1.4,0.1,1.4c0.3,0,1.4-0.8,2.4-1.5l0.3,0.6
	c-1.6,1.6-4.2,3-4.7,3c-0.4,0-1-0.3-0.7-1.9L145.1,356.7z M144.2,349.4c-0.5,0-1,0.1-1.4,0.3c-0.9,0.5-1.9,1.4-2.9,3.4
	c-0.9,1.9-1.1,4.2-1.1,5.2c0,1.2,0.3,2.1,0.9,2.1c0.5,0,1.8-1,3-2.3c0.8-0.8,1.9-2.1,2.4-3.1c0.4-0.8,1.1-4.1,1.2-5.3
	C145.8,349.6,145.2,349.4,144.2,349.4 M158.2,358.3c-0.7,0.7-2.3,2.2-3,2.2c-0.3,0-0.4-0.7-0.1-2.2l1.8-8.3l3.4-0.2l0.9-1h-4.1
	l1-4.1l-0.3-0.2l-2.3,1.9l-0.6,2.4h-2.2l-0.9,0.8l0.2,0.4h2.5l-2,9.1c-0.5,2.4,0.1,3.6,0.6,3.6c1.5,0,4.3-2.5,5.4-3.9L158.2,358.3z
	 M165.2,342.5c0,0.7,0.6,1.2,1.4,1.2c1,0,1.7-0.9,1.7-1.8c0-0.6-0.4-1.3-1.3-1.3C165.7,340.6,165.1,341.7,165.2,342.5 M167.4,358.6
	c-1,0.9-2.3,1.7-2.6,1.7c-0.3,0-0.2-0.4,0-1.1l2.2-8.7c0.3-1.2,0.6-2.3-0.2-2.3c-0.7,0-3.5,1.5-5.4,3.3l0.3,0.6
	c0.8-0.7,2.3-1.6,2.6-1.6c0.3,0,0.3,0.3,0,1.5l-2.1,8.8c-0.4,1.5,0.1,1.9,0.6,1.9c1,0,4-2.4,5-3.4L167.4,358.6z M177.8,348.1
	c2.7,0,4.1,1.8,4.1,4.4c0,2.8-1.2,6.1-3.3,8c-1.3,1.2-3.3,2.1-4.7,2.1c-3,0-4-2.5-4-4.7c0-4.4,2.4-7.4,4.6-8.7
	C175.7,348.5,177,348.1,177.8,348.1 M172.4,357.2c0,2.4,0.7,4.3,2.5,4.3c0.3,0,0.7-0.1,1-0.2c1.3-0.4,3.5-4.2,3.4-8.3
	c0-2.4-0.9-3.6-2.5-3.6c-0.3,0-0.8,0.1-1,0.3C174.8,349.9,172.4,352.5,172.4,357.2 M187.1,361.8c0.2-1.7,1-5.2,1.2-5.8
	c1-1.8,4.7-5.8,6.4-5.8c0.9,0,0.7,1,0.3,2.5l-1.8,7.6c-0.4,1.7-0.3,2.4,0.5,2.4c0.4,0,3.1-1.4,4.7-3l-0.3-0.6
	c-0.9,0.7-2.1,1.4-2.4,1.4c-0.2,0-0.2-0.3,0.1-1.3c0.6-2.6,1.2-5.2,1.8-7.5c0.8-3.2-0.3-3.5-0.8-3.5c-0.3,0-0.8,0.1-1.5,0.4
	c-1.4,0.6-3.8,2.2-6.4,5.4h-0.1l0.7-2.9c0.4-1.7,0.5-2.9-0.3-2.9c-0.7,0-3,1.5-4.7,3.3l0.3,0.6c0.8-0.8,2-1.6,2.4-1.6
	c0.3,0,0.2,0.6-0.1,1.8l-1.2,5.2c-0.5,2.1-0.8,3.5-1.2,5.2L187.1,361.8z M209.4,356.7L209.4,356.7c-1.4,1.7-2.9,3.2-4.4,4.4
	c-0.5,0.4-2.2,1.5-2.7,1.5c-0.7,0-1.8-0.6-1.8-3.4c0-3.3,1.5-6.7,3.5-8.5c1.6-1.5,4.2-2.7,6.2-2.7c0.5,0,1,0.1,1.7,0.2
	c0.4,0.1,0.9,0.2,1.2,0.2l0.2,0.1c-0.7,3.2-1.5,6.8-2.1,10.4c-0.2,1-0.2,1.4,0.1,1.4c0.3,0,1.4-0.8,2.4-1.5l0.3,0.6
	c-1.6,1.6-4.2,3-4.7,3c-0.4,0-1-0.3-0.7-1.9L209.4,356.7z M208.5,349.4c-0.5,0-1,0.1-1.4,0.3c-0.9,0.5-1.9,1.4-2.9,3.4
	c-0.9,1.9-1.1,4.2-1.1,5.2c0,1.2,0.3,2.1,0.9,2.1c0.5,0,1.8-1,3-2.3c0.8-0.8,1.9-2.1,2.4-3.1c0.4-0.8,1.1-4.1,1.2-5.3
	C210.1,349.6,209.5,349.4,208.5,349.4 M221.5,358.4c-0.9,0.8-2.4,2-2.8,2c-0.2,0-0.3-0.3-0.1-1l3.9-18.3c0.2-0.8,0.1-1.3-0.2-1.3
	c-0.3,0-2.3,0.7-4.9,1.3v0.6h1.6c1,0,1,0.2,0.8,1.6l-3.4,16.3c-0.5,2.4-0.1,3.2,0.6,3.2c0.5,0,3.6-1.9,4.9-3.6L221.5,358.4z
	 M253.6,341.6l-10.4,16.6l-4.4-16.6h-5l-0.2,0.7c2.6,0.2,3.1,0.5,2.3,3.8l-1.9,7.6c-0.8,3.3-1.3,5-1.7,6c-0.4,1.2-1.3,1.6-3,1.7
	l-0.1,0.8h7.6l0.1-0.7c-2.1-0.1-2.9-0.5-2.7-1.8c0.1-0.8,0.4-2.5,1.1-5.9l2-8.5h0.1l4.2,16.6h0.8l10.6-17h0.1l-2.2,12.8
	c-0.6,3.4-0.9,3.6-3.5,3.8l-0.2,0.7h8.2l0.2-0.7c-2.6-0.2-2.8-0.4-2.2-3.8l1.9-11.5c0.6-3.4,1-3.6,3.5-3.8l0.2-0.7H253.6z
	 M269.7,349c-0.3,1.7-0.9,4.1-1.1,4.8c-0.7,1.7-4.8,6.9-6.4,6.9c-0.8,0-0.7-1-0.3-2.9l1.7-7.6c0.3-1.2,0.3-2-0.6-2
	c-0.7,0-2.9,1.5-4.7,3.3l0.3,0.6c0.8-0.8,2-1.6,2.4-1.6c0.3,0,0.2,0.6-0.1,1.8l-1.5,6.6c-0.8,3.4,0.5,3.8,0.9,3.8
	c0.8,0,1.8-0.6,2.6-1.1c2-1.3,3.7-3.5,5.2-5.5h0.1l-0.9,4.1c-0.4,1.7-0.2,2.5,0.5,2.5c0.4,0,3.1-1.4,4.7-3L272,359
	c-0.9,0.7-2.1,1.4-2.4,1.4c-0.3,0-0.2-0.3,0-1.3l2.4-11h-0.3L269.7,349z M273.6,360.8c0,1,1.9,1.8,3,1.8c2.8,0,5.5-2.7,5.5-5.2
	c0-1.1-0.3-2-2.3-3.3c-1-0.6-2.3-1.6-2.3-2.6c0-1.2,0.9-2,1.8-2c1,0,1.9,0.6,2.4,1.2c0.2,0.3,0.5,0.2,1-0.1c0.4-0.3,0.5-0.8,0.5-1.2
	c0-0.7-1.2-1.5-2.2-1.5c-1.5,0-3,1-3.7,1.7c-1.5,1.4-1.6,2.6-1.6,3.3c0,1.6,1.6,2.3,3,3.3c1.5,1.1,1.7,1.9,1.7,2.7c0,1.2-1,2-1.9,2
	c-0.9,0-1.9-0.3-2.9-1.4c-0.3-0.3-0.5-0.3-1-0.1C274.1,359.7,273.6,360.3,273.6,360.8 M295,359c-3.2,3.2-5.8,3.6-6.9,3.6
	c-1.2,0-3.3-0.9-3.3-4.6c0-2.9,1.3-6.2,3.7-8c1.4-1.1,3.3-1.9,4.7-1.9c1.6,0,2.7,1.1,2.7,2.4c0,2.9-5.4,4.9-8.4,5.8
	c0,0.2-0.1,0.6-0.1,0.8c0,1.7,0.3,3.8,2.4,3.8c1.2,0,2.8-0.6,4.8-2.5L295,359z M287.6,355.3c4.4-1.3,5.8-2.7,5.8-4.4
	c0-1.2-0.9-1.6-1.6-1.6c-0.4,0-0.9,0.1-1.1,0.3C289.7,350.2,288.2,351.8,287.6,355.3 M309,349c-0.3,1.7-0.9,4.1-1.1,4.8
	c-0.7,1.7-4.8,6.9-6.4,6.9c-0.8,0-0.7-1-0.3-2.9l1.7-7.6c0.3-1.2,0.3-2-0.6-2c-0.7,0-2.9,1.5-4.7,3.3l0.3,0.6c0.8-0.8,2-1.6,2.4-1.6
	c0.3,0,0.2,0.6-0.1,1.8l-1.5,6.6c-0.8,3.4,0.5,3.8,0.9,3.8c0.8,0,1.8-0.6,2.6-1.1c2-1.3,3.7-3.5,5.2-5.5h0.1l-0.9,4.1
	c-0.4,1.7-0.2,2.5,0.5,2.5c0.4,0,3.1-1.4,4.7-3l-0.4-0.6c-0.9,0.7-2.1,1.4-2.4,1.4c-0.3,0-0.2-0.3,0-1.3l2.4-11h-0.3L309,349z
	 M335.8,359c-1,0.7-2.1,1.4-2.4,1.4c-0.2,0-0.2-0.3,0.1-1.3c0.6-2.6,1.3-5.2,1.8-7.5c0.8-3.2-0.3-3.5-0.8-3.5
	c-0.3,0-0.9,0.1-1.5,0.4c-1.4,0.7-3.9,2.2-6.4,5.5h-0.1l0.6-2.7c0.7-2.9-0.3-3.2-0.9-3.2c-0.3,0-1,0.2-1.6,0.5
	c-1.4,0.7-3.6,2.1-6.1,5.3h-0.1l0.7-2.9c0.4-1.7,0.5-2.9-0.3-2.9c-0.7,0-3,1.5-4.7,3.3l0.3,0.6c0.8-0.8,2-1.6,2.4-1.6
	c0.3,0,0.2,0.6-0.1,1.8l-1.2,5.2c-0.5,2.1-0.8,3.5-1.2,5.2l2.5-0.9c0.2-1.7,1-5.2,1.2-5.8c1-1.7,4.6-5.8,6.3-5.8
	c0.8,0,0.7,0.8,0.4,2.1l-1.2,5.2c-0.4,1.7-0.8,3.5-1.3,5.2l2.5-0.9c0.3-1.7,1-4.6,1.3-5.8c1-1.8,4.6-5.9,6.3-5.9c1,0,0.8,1,0.4,2.5
	l-1.9,7.6c-0.4,1.7-0.3,2.5,0.5,2.5c0.4,0,3.1-1.4,4.7-3L335.8,359z M353.9,348.1c2.7,0,4.1,1.8,4.1,4.4c0,2.8-1.2,6.1-3.3,8
	c-1.3,1.2-3.3,2.1-4.7,2.1c-3,0-4-2.5-4-4.7c0-4.4,2.4-7.4,4.6-8.7C351.7,348.5,353,348.1,353.9,348.1 M348.4,357.2
	c0,2.4,0.7,4.3,2.5,4.3c0.3,0,0.7-0.1,1-0.2c1.3-0.4,3.5-4.2,3.4-8.3c0-2.4-0.9-3.6-2.5-3.6c-0.3,0-0.8,0.1-1,0.3
	C350.8,349.9,348.4,352.5,348.4,357.2 M360.9,348.9l-0.9,0.8l0.1,0.3h2.6c-0.4,2.9-0.8,5.3-1.4,9.3c-0.9,5.9-1.6,8-2.2,8.5
	c-0.2,0.2-0.5,0.3-0.8,0.3c-0.4,0-1-0.3-1.4-0.5c-0.4-0.2-0.7,0-0.9,0.2c-0.3,0.3-0.5,0.7-0.5,1.1c0,0.6,0.8,1,1.4,1
	c0.6,0,2.1-0.5,3.5-2.2c1.1-1.3,2.5-4.4,3.8-11.6c0.2-1.3,0.5-2.7,1-6.2l3.2-0.3l0.7-0.8h-3.7c1-5.9,1.7-7.7,3.1-7.7
	c1,0,1.7,0.4,2.4,1c0.2,0.2,0.6,0.2,0.9,0c0.3-0.2,0.6-0.7,0.6-1.2c0-0.6-0.8-1.3-1.9-1.3c-1.8,0-3.8,1.1-5.1,2.7
	c-1.2,1.5-2.1,3.9-2.5,6.5H360.9z M382.8,358.3c-0.7,0.7-2.3,2.2-3,2.2c-0.3,0-0.4-0.7-0.1-2.2l1.8-8.3l3.4-0.2l0.9-1h-4.1l1-4.1
	l-0.3-0.2l-2.3,1.9l-0.6,2.4h-2.2l-0.9,0.8l0.2,0.4h2.5l-2,9.1c-0.5,2.4,0.1,3.6,0.6,3.6c1.5,0,4.3-2.5,5.4-3.9L382.8,358.3z
	 M388,361.8c0.2-1.7,1-5.2,1.2-6.2c1-1.8,4.5-5.5,6.1-5.5c0.9,0,0.8,1,0.5,2.5l-1.7,7.6c-0.4,1.7-0.2,2.5,0.6,2.5
	c0.4,0,3.1-1.4,4.6-3L399,359c-0.9,0.7-2.1,1.4-2.3,1.4c-0.3,0-0.2-0.3,0-1.3l1.7-7.6c0.7-3-0.5-3.3-1-3.3c-0.3,0-0.8,0.1-1.3,0.3
	c-1.8,0.8-3.9,2.3-6.3,5.1h-0.1l2.6-12.5c0.2-0.8,0.1-1.3-0.3-1.3c-0.3,0-2.5,0.8-4.9,1.3v0.6h1.7c1,0,1,0.2,0.8,1.6l-3,14.6
	c-0.3,1.6-0.6,3.2-1,4.9L388,361.8z M410.1,351c0,1.7-1.4,3.1-5.8,4.4c0.6-3.5,2.1-5.1,3.1-5.6c0.3-0.2,0.7-0.3,1.1-0.3
	C409.1,349.4,410.1,349.8,410.1,351 M411.2,358.4c-2,1.9-3.6,2.5-4.8,2.5c-2.1,0-2.4-2.2-2.4-3.8c0-0.2,0.1-0.6,0.1-0.8
	c3-0.9,8.4-2.9,8.4-5.8c0-1.3-1-2.4-2.7-2.4c-1.4,0-3.3,0.9-4.7,1.9c-2.3,1.8-3.7,5.1-3.7,8c0,3.7,2.1,4.6,3.3,4.6
	c1.1,0,3.7-0.4,6.9-3.6L411.2,358.4z M431,361.5l1.3-0.2c0.9-0.1,1.1-0.4,1-1.6l-0.9-5.3h-6.5c-0.5,0.9-1.7,3.3-2.5,4.8
	c-0.9,1.7-0.8,2.1,0.2,2.2l1.5,0.2l-0.2,0.7h-6.7l0.2-0.7c1.9-0.2,2.4-0.5,3.9-3.2l9.4-16.9l0.9-0.3l1.1,6c0.7,4,1.4,8.1,2,12
	c0.3,2,0.6,2.2,2.8,2.4l-0.2,0.7h-7.5L431,361.5z M426.5,353.2h5.7l-1.3-8h-0.1L426.5,353.2z M461.7,359c-1,0.7-2.1,1.4-2.4,1.4
	c-0.2,0-0.2-0.3,0.1-1.3c0.6-2.6,1.3-5.2,1.8-7.5c0.8-3.2-0.3-3.5-0.8-3.5c-0.3,0-0.9,0.1-1.5,0.4c-1.4,0.7-3.9,2.2-6.4,5.5h-0.1
	l0.6-2.7c0.7-2.9-0.3-3.2-0.9-3.2c-0.3,0-1,0.2-1.6,0.5c-1.4,0.7-3.6,2.1-6.1,5.3h-0.1l0.7-2.9c0.4-1.7,0.5-2.9-0.3-2.9
	c-0.7,0-3,1.5-4.7,3.3l0.3,0.6c0.8-0.8,2-1.6,2.4-1.6c0.3,0,0.2,0.6-0.1,1.8l-1.2,5.2c-0.5,2.1-0.8,3.5-1.2,5.2l2.5-0.9
	c0.2-1.7,1-5.2,1.2-5.8c1-1.7,4.6-5.8,6.3-5.8c0.8,0,0.7,0.8,0.4,2.1l-1.2,5.2c-0.4,1.7-0.8,3.5-1.3,5.2l2.5-0.9
	c0.3-1.7,1-4.6,1.3-5.8c1-1.8,4.6-5.9,6.3-5.9c1,0,0.8,1,0.4,2.5l-1.9,7.6c-0.4,1.7-0.3,2.5,0.5,2.5c0.4,0,3.1-1.4,4.7-3L461.7,359z
	 M474.6,359c-3.2,3.2-5.8,3.6-6.9,3.6c-1.2,0-3.3-0.9-3.3-4.6c0-2.9,1.3-6.2,3.7-8c1.4-1.1,3.3-1.9,4.7-1.9c1.6,0,2.7,1.1,2.7,2.4
	c0,2.9-5.4,4.9-8.4,5.8c0,0.2-0.1,0.6-0.1,0.8c0,1.7,0.3,3.8,2.4,3.8c1.2,0,2.8-0.6,4.8-2.5L474.6,359z M467.1,355.3
	c4.4-1.3,5.8-2.7,5.8-4.4c0-1.2-0.9-1.6-1.6-1.6c-0.4,0-0.9,0.1-1.1,0.3C469.2,350.2,467.7,351.8,467.1,355.3 M481.8,351
	c0.3-1.7,0.4-2.9-0.3-2.9c-0.8,0-2.9,1.5-4.6,3.3l0.3,0.6c0.7-0.7,2.1-1.6,2.4-1.6c0.3,0,0.2,0.6-0.2,2.2l-1,5
	c-0.3,1.7-0.7,3.4-1.1,5l2.6-0.9c0.1-1.2,0.6-3.3,1.2-6.4c0.4-1.2,1-2.3,1.8-3.5c0.9-1.1,1.4-1.3,1.7-1.3c0.3,0,0.7,0.1,1,0.4
	c0.3,0.2,0.6,0.2,0.9,0c0.3-0.2,0.6-0.6,0.8-1c0.2-0.3,0.2-0.8,0-1.1c-0.3-0.4-0.8-0.8-1.5-0.8c-0.8,0-2.8,1.9-4.4,4.8h-0.1
	L481.8,351 M492.5,342.5c0,0.7,0.6,1.2,1.4,1.2c1,0,1.7-0.9,1.7-1.8c0-0.6-0.4-1.3-1.3-1.3C493,340.6,492.4,341.7,492.5,342.5
	 M494.7,358.6c-1,0.9-2.3,1.7-2.6,1.7c-0.3,0-0.2-0.4,0-1.1l2.2-8.7c0.3-1.2,0.6-2.3-0.2-2.3c-0.7,0-3.5,1.5-5.4,3.3l0.3,0.6
	c0.8-0.7,2.3-1.6,2.6-1.6c0.3,0,0.3,0.3,0,1.5l-2.1,8.8c-0.4,1.5,0.1,1.9,0.6,1.9c1,0,4-2.4,5-3.4L494.7,358.6z M506.1,358.7
	c-0.9,0.7-2.5,2.1-4.3,2.1c-1.6,0-2.2-1.4-2.2-3.3c0-2.2,0.6-4.6,1.6-6.1c0.7-1.2,1.6-1.9,2.5-1.9c0.9,0,1.7,0.5,2.2,1.3
	c0.3,0.4,0.7,0.3,1.1,0c0.5-0.3,0.9-0.8,0.9-1.3c0-0.7-1-1.4-2.1-1.4c-2.1,0-4.1,1.1-5.4,2.3c-2.2,2-3.4,5.3-3.4,7.8
	c0,2.8,1.3,4.4,3.2,4.4c1.4,0,4.3-1.1,6.3-3.3L506.1,358.7z M517.2,356.7L517.2,356.7c-1.4,1.7-2.9,3.2-4.4,4.4
	c-0.5,0.4-2.2,1.5-2.7,1.5c-0.7,0-1.8-0.6-1.8-3.4c0-3.3,1.5-6.7,3.5-8.5c1.6-1.5,4.2-2.7,6.2-2.7c0.5,0,1,0.1,1.7,0.2
	c0.4,0.1,0.9,0.2,1.2,0.2l0.2,0.1c-0.7,3.2-1.5,6.8-2.1,10.4c-0.2,1-0.2,1.4,0.1,1.4s1.4-0.8,2.4-1.5l0.3,0.6c-1.6,1.6-4.2,3-4.7,3
	c-0.4,0-1-0.3-0.7-1.9L517.2,356.7z M516.3,349.4c-0.5,0-1,0.1-1.4,0.3c-0.9,0.5-1.9,1.4-2.9,3.4c-0.9,1.9-1.1,4.2-1.1,5.2
	c0,1.2,0.3,2.1,0.9,2.1c0.5,0,1.8-1,3-2.3c0.8-0.8,1.9-2.1,2.4-3.1c0.4-0.8,1.1-4.1,1.2-5.3C517.9,349.6,517.4,349.4,516.3,349.4
	 M526.6,361.8c0.2-1.7,1-5.2,1.2-5.8c1-1.8,4.7-5.8,6.4-5.8c0.9,0,0.7,1,0.3,2.5l-1.8,7.6c-0.4,1.7-0.3,2.4,0.5,2.4
	c0.4,0,3.1-1.4,4.7-3l-0.3-0.6c-0.9,0.7-2.1,1.4-2.4,1.4c-0.2,0-0.2-0.3,0.1-1.3c0.6-2.6,1.2-5.2,1.8-7.5c0.8-3.2-0.3-3.5-0.8-3.5
	c-0.3,0-0.8,0.1-1.5,0.4c-1.4,0.6-3.8,2.2-6.4,5.4h-0.1l0.7-2.9c0.4-1.7,0.5-2.9-0.3-2.9c-0.7,0-3,1.5-4.7,3.3l0.3,0.6
	c0.8-0.8,2-1.6,2.4-1.6c0.3,0,0.2,0.6-0.1,1.8l-1.2,5.2c-0.5,2.1-0.8,3.5-1.2,5.2L526.6,361.8z M550,341.6l-0.2,0.7
	c2.6,0.2,2.8,0.4,2.2,3.9l-2.2,11.4c-0.7,3.5-1,3.7-3.5,3.9l-0.2,0.7h8.2l0.2-0.7c-2.6-0.2-2.9-0.4-2.2-3.9l2.2-11.4
	c0.7-3.5,1-3.7,3.6-3.9l0.2-0.7H550z M560.3,361.8c0.2-1.7,1-5.2,1.2-5.8c1-1.8,4.7-5.8,6.4-5.8c0.9,0,0.7,1,0.3,2.5l-1.8,7.6
	c-0.4,1.7-0.3,2.4,0.5,2.4c0.4,0,3.1-1.4,4.7-3l-0.3-0.6c-0.9,0.7-2.1,1.4-2.4,1.4c-0.2,0-0.2-0.3,0.1-1.3c0.6-2.6,1.2-5.2,1.8-7.5
	c0.8-3.2-0.3-3.5-0.8-3.5c-0.3,0-0.8,0.1-1.5,0.4c-1.4,0.6-3.8,2.2-6.4,5.4H562l0.7-2.9c0.4-1.7,0.5-2.9-0.3-2.9
	c-0.7,0-3,1.5-4.7,3.3l0.3,0.6c0.8-0.8,2-1.6,2.4-1.6c0.3,0,0.2,0.6-0.1,1.8l-1.2,5.2c-0.5,2.1-0.8,3.5-1.2,5.2L560.3,361.8z
	 M583.3,341c2.4-0.5,4.8-1.3,5-1.3c0.4,0,0.3,0.5,0.2,1.3c-1.3,6-2.5,12-3.6,18.1c-0.2,1-0.3,1.3,0,1.3c0.3,0,1.4-0.7,2.4-1.4
	l0.3,0.6c-1.6,1.6-4.2,3-4.7,3c-0.4,0-1-0.3-0.5-2.5l0.8-3.7h-0.1c-1.4,2.1-2.9,3.5-4.4,4.7c-0.5,0.4-2.2,1.5-2.9,1.5
	c-0.8,0-2-0.9-2-3.5c0-3.4,1.6-6.7,3.6-8.5c1.3-1.1,3.8-2.5,5.7-2.5c0.3,0,1,0,1.7,0.1l1-5c0.3-1.4,0.2-1.6-0.8-1.6h-1.7V341z
	 M577.4,360.6c0.7,0,1.8-0.9,3.1-2.3c0.7-0.7,1.5-1.8,2.4-3c0.7-1,1.4-4,1.7-5.6c-0.5-0.3-1.4-0.5-2.3-0.5c-0.8,0-1.6,0.2-2,0.5
	c-0.7,0.4-1.6,1.2-2.4,2.9c-1,1.8-1.4,4.1-1.4,5.8C576.4,359.8,576.7,360.6,577.4,360.6 M593.6,342.5c0,0.7,0.6,1.2,1.4,1.2
	c1,0,1.7-0.9,1.7-1.8c0-0.6-0.4-1.3-1.3-1.3C594.2,340.6,593.6,341.7,593.6,342.5 M595.8,358.6c-1,0.9-2.3,1.7-2.6,1.7
	c-0.3,0-0.2-0.4,0-1.1l2.2-8.7c0.3-1.2,0.6-2.3-0.2-2.3c-0.7,0-3.5,1.5-5.4,3.3l0.3,0.6c0.8-0.7,2.3-1.6,2.6-1.6
	c0.3,0,0.3,0.3,0,1.5l-2.1,8.8c-0.4,1.5,0.1,1.9,0.6,1.9c1,0,4-2.4,5-3.4L595.8,358.6z M606.9,356.7L606.9,356.7
	c-1.4,1.7-2.9,3.2-4.4,4.4c-0.5,0.4-2.2,1.5-2.7,1.5c-0.7,0-1.8-0.6-1.8-3.4c0-3.3,1.5-6.7,3.5-8.5c1.6-1.5,4.2-2.7,6.2-2.7
	c0.5,0,1,0.1,1.7,0.2c0.4,0.1,0.9,0.2,1.2,0.2l0.2,0.1c-0.7,3.2-1.5,6.8-2.1,10.4c-0.2,1-0.2,1.4,0.1,1.4s1.4-0.8,2.4-1.5l0.3,0.6
	c-1.6,1.6-4.2,3-4.7,3c-0.4,0-1-0.3-0.7-1.9L606.9,356.7z M606,349.4c-0.5,0-1,0.1-1.4,0.3c-0.9,0.5-1.9,1.4-2.9,3.4
	c-0.9,1.9-1.1,4.2-1.1,5.2c0,1.2,0.3,2.1,0.9,2.1c0.5,0,1.8-1,3-2.3c0.8-0.8,1.9-2.1,2.4-3.1c0.4-0.8,1.1-4.1,1.2-5.3
	C607.7,349.6,607.1,349.4,606,349.4 M616.3,361.8c0.2-1.7,1-5.2,1.2-5.8c1-1.8,4.7-5.8,6.4-5.8c0.9,0,0.7,1,0.3,2.5l-1.8,7.6
	c-0.4,1.7-0.3,2.4,0.5,2.4c0.4,0,3.1-1.4,4.7-3l-0.3-0.6c-0.9,0.7-2.1,1.4-2.4,1.4c-0.2,0-0.2-0.3,0.1-1.3c0.6-2.6,1.2-5.2,1.8-7.5
	c0.8-3.2-0.3-3.5-0.8-3.5c-0.3,0-0.8,0.1-1.5,0.4c-1.4,0.6-3.8,2.2-6.4,5.4h-0.1l0.7-2.9c0.4-1.7,0.5-2.9-0.3-2.9
	c-0.7,0-3,1.5-4.7,3.3l0.3,0.6c0.8-0.8,2-1.6,2.4-1.6c0.3,0,0.2,0.6-0.1,1.8l-1.2,5.2c-0.5,2.1-0.8,3.5-1.2,5.2L616.3,361.8z"/>
<path class="st0" d="M77.7,354.6c18.5-7.7,27.3-28.8,19.6-47.3c-7.7-18.5-28.8-27.3-47.3-19.6c-18.5,7.7-27.3,28.8-19.6,47.3
	C38,353.4,59.2,362.2,77.7,354.6"/>
<path class="st1" d="M85.7,328.4c-2.3-4-6.1-4.1-6.5-4.1c0,0,0,0,0,0l15.6-3.3l-15.6-3.3l0,0c0.2-0.1,3.2-2.8,7.8-2.9
	c3.4-0.1,6.4-4.3,4.5-7.5c0,0-0.6,5.1-7,3.4c-4.5-1.2-7.2,1.4-7.5,1.7c0,0,0,0,0,0l8.8-13.4l-13.4,8.8c0,0,0,0,0,0
	c0-0.2,0.3-4.3,3.4-7.5c2.4-2.5,1.5-7.6-2.1-8.5c0,0,3.2,4-2.5,7.3c-4,2.3-4.1,6.1-4.1,6.5c0,0,0,0,0,0l-3.3-15.6l-3.3,15.6
	c0,0,0,0,0,0c-0.1-0.1-2.8-3.2-2.9-7.8c-0.1-3.4-4.3-6.4-7.5-4.5c0,0,5.1,0.6,3.4,7c-1.2,4.5,1.4,7.2,1.7,7.5c0,0,0,0,0,0l-13.4-8.8
	l7.1,10.9l1.6,2.5c0,0,0,0,0,0c-0.1,0-4.2-0.2-7.5-3.4c-2.5-2.4-7.6-1.5-8.5,2.1c0,0,4-3.2,7.3,2.5c2.4,4,6.1,4.1,6.5,4.1
	c0,0,0,0,0,0l-15.6,3.3l15.6,3.3v0c-0.1,0.1-3.2,2.8-7.8,2.9c-3.4,0.1-6.4,4.3-4.5,7.5c0,0,0.6-5.1,7-3.4c4.5,1.2,7.2-1.4,7.5-1.7
	c0,0,0,0,0,0L41.9,343l13.4-8.7c0,0.1-0.2,4.2-3.4,7.5c-2.4,2.5-1.5,7.6,2.1,8.5c0,0-3.2-4,2.5-7.3c4-2.4,4.1-6.1,4.1-6.5
	c0,0,0,0,0,0l3.3,15.6l3.3-15.6c0,0,0,0,0,0c0.1,0.1,2.8,3.2,2.9,7.8c0.1,3.4,4.3,6.4,7.5,4.5c0,0-5.1-0.6-3.4-7
	c1.2-4.5-1.4-7.2-1.7-7.5c0,0,0,0,0,0l13.4,8.8l-4.6-7.1l-4.1-6.3c0.2,0,4.3,0.3,7.5,3.4c2.5,2.4,7.6,1.5,8.5-2.1
	C93,331,89,334.2,85.7,328.4"/>
</svg>
