<?xml version="1.0" encoding="utf-8"?>
<!-- Generator: Adobe Illustrator 19.2.1, SVG Export Plug-In . SVG Version: 6.00 Build 0)  -->
<svg version="1.1" id="layer" xmlns="http://www.w3.org/2000/svg" xmlns:xlink="http://www.w3.org/1999/xlink" x="0px" y="0px"
	 viewBox="0 0 652 652" style="enable-background:new 0 0 652 652;" xml:space="preserve">
<style type="text/css">
	.st0{fill:url(#Shape_2_);}
</style>
<path d="M529.9,297.2c7.9,0,13.9-5.5,13.9-13s-6-13.2-13.9-13.2c-8.4,0-13.8,5.7-13.8,13.2S522,297.2,529.9,297.2z M517.4,378.2
	h25.2v-74h-25.2V378.2z M438.8,379.9c17.3,0,31.2-12.7,31.2-38.2v-1.1c0-25.3-13.9-38.3-31-38.3c-11.1,0-18.7,5.9-22.9,13v-43.6
	h-25.1v106.5H416v-11.5C419.7,374.7,427.8,379.9,438.8,379.9z M430,360.6c-9.6,0-14.6-6.4-14.6-18.9v-1.1c0-13.6,5.8-19.6,14.6-19.3
	c8.8,0.3,12.8,6.5,12.8,19.5v1.1C442.8,353.9,438.8,360.6,430,360.6z M247.1,378.2h-28.7V277.1h38.2c27.5,0,40.3,14.5,40.3,36v0.6
	c0,21.2-14.2,33.6-39.1,33.6h-10.8V378.2z M247.1,298.9v26.6h8.3c9.6,0,14.5-3.3,14.5-11.7v-0.7c0-8.6-5.3-14.2-14.3-14.2H247.1z
	 M353.8,366.8c-3.9,7.6-11.1,13.2-23.3,13.2c-14.2,0-24.7-8.8-24.7-27.4v-48.2h25.1v44.1c0,8.3,3.2,12.4,10.4,12.4
	c7.6,0,12.5-4.5,12.5-14v-42.6h25.1v74h-25.1V366.8z M504,378.2h-25V271.8h25V378.2z M627,349.1c-0.7,18.7-13.2,30.8-37,30.8
	c-21.9,0-38.6-12.9-38.6-37.8v-1.1c0-24.6,17.6-38.7,39.2-38.7c18,0,34.6,7.9,36,30.4H603c-1.1-6.9-4.5-10.7-11.8-10.7
	c-8.9,0-14,6.4-14,18.8v1.1c0,12.9,4.9,19.5,14.5,19.5c7,0,11.9-4.2,12.8-12.3H627z"/>
<linearGradient id="Shape_2_" gradientUnits="userSpaceOnUse" x1="-147.2693" y1="594.6316" x2="-142.5323" y2="599.3362" gradientTransform="matrix(30.8936 0 0 -31 4573.7246 18831.9844)">
	<stop  offset="0" style="stop-color:#0000FF"/>
	<stop  offset="1" style="stop-color:#0099FF"/>
</linearGradient>
<path id="Shape_7_" class="st0" d="M31.2,335.8c-5.6-5.7-5.6-14.9,0-20.6c3.6-3.7,5-9,3.7-13.9c-2-7.7,2.6-15.7,10.2-17.8
	c4.9-1.4,8.8-5.3,10.2-10.2c2.1-7.7,10-12.3,17.7-10.3c5,1.3,10.2-0.1,13.9-3.7c5.7-5.6,14.8-5.6,20.5,0c3.7,3.6,8.9,5,13.9,3.7
	c7.7-2,15.6,2.6,17.7,10.3c1.4,5,5.2,8.8,10.2,10.2c7.7,2.1,12.2,10.1,10.2,17.8c-1.3,5,0.1,10.3,3.7,13.9c5.6,5.7,5.6,14.9,0,20.6
	c-3.6,3.7-5,9-3.7,13.9c2,7.7-2.6,15.7-10.2,17.8c-4.9,1.4-8.8,5.3-10.2,10.2c-2.1,7.7-10,12.3-17.7,10.3c-5-1.3-10.2,0.1-13.9,3.7
	c-5.7,5.6-14.8,5.6-20.5,0c-3.7-3.6-8.9-5-13.9-3.7c-7.7,2-15.6-2.6-17.7-10.3c-1.4-5-5.2-8.8-10.2-10.2
	c-7.7-2.1-12.2-10.1-10.2-17.8C36.2,344.7,34.8,339.5,31.2,335.8z"/>
</svg>
