<svg width="161" height="68" viewBox="0 0 161 68" fill="none" xmlns="http://www.w3.org/2000/svg">
<path d="M0 41.234H7.23951V50.8624H19.2793V41.234H26.5657V67.4213H19.2793V57.0952H7.23951V67.4213H0V41.234Z" fill="#1D58BA"/>
<path d="M41.5168 56.1184H49.0655L45.993 47.4824H44.5893L41.5168 56.1184ZM51.0774 41.234L60.5757 67.4213H53.027L50.9994 61.7466H39.536L37.5084 67.4213H30.0689L39.5828 41.234H51.0774Z" fill="#1D58BA"/>
<path d="M78.3061 54.4671C81.1234 54.4671 82.1251 52.9021 82.1251 50.8102C82.1251 48.7183 81.1234 47.1998 78.3061 47.1998H71.3099V54.4671H78.3061ZM64.0789 41.234H79.0574C86.0067 41.234 89.3874 44.4726 89.3874 50.5003C89.3874 54.7305 87.5718 57.5817 84.0815 58.8833L90.4986 67.4213H82.2033L77.0853 60.2624H71.3412V67.4213H64.0945V41.2495L64.0789 41.234Z" fill="#1D58BA"/>
<path d="M108.375 54.4671C111.192 54.4671 112.194 52.9021 112.194 50.8102C112.194 48.7183 111.192 47.1998 108.375 47.1998H101.379V54.4671H108.375ZM94.1478 41.234H109.126C116.076 41.234 119.456 44.4726 119.456 50.5003C119.456 54.7305 117.641 57.5817 114.15 58.8833L120.568 67.4213H112.272L107.154 60.2624H101.41V67.4213H94.1634V41.2495L94.1478 41.234Z" fill="#1D58BA"/>
<path d="M131.369 41.234H124.217V67.4213H131.369V41.234Z" fill="#1D58BA"/>
<path d="M136.733 65.5207V58.7491H136.764C140.971 60.903 145.317 62.0342 149.039 62.0342C152.103 62.0342 153.651 61.2284 153.651 59.8028C153.651 58.3772 152.525 57.9123 146.74 56.9826C141.096 56.0683 136.624 54.3793 136.624 49.1262C136.624 44.4001 140.736 40.5106 149.148 40.5106C152.525 40.5106 156.137 41.2699 159.249 42.711V49.4362H159.218C156.106 47.6232 152.009 46.4765 148.616 46.4765C145.223 46.4765 144.035 47.3132 144.035 48.6614C144.035 50.3969 146.334 50.5673 150.837 51.3576C156.497 52.3184 161 53.8989 161 59.4774C161 63.3978 158.248 68 148.757 68C144.035 68 140.329 67.0083 136.733 65.5207Z" fill="#1D58BA"/>
<path d="M83.9458 33.7955C83.9458 33.7955 87.6992 35.4468 93.2824 35.4468C101.806 35.4468 107.608 32.2986 114.02 32.2986C118.446 32.2986 121.589 34.2431 121.589 34.2431V26.9743C121.589 26.9743 118.618 25.0298 114.364 25.0298C106.998 25.0298 102.181 28.2243 95.253 28.2243C91.1868 28.2243 88.2466 26.9589 88.2466 26.9589C87.3239 29.675 86.0102 31.9745 83.9302 33.7801L83.9458 33.7955Z" fill="#FF343E"/>
<path d="M89.7273 17.8696C89.7273 19.1317 89.6334 20.3323 89.4925 21.4866C89.4925 21.4866 91.6834 22.4255 95.8618 22.4255C102.435 22.4255 107.63 19.5473 113.358 19.5473C118.303 19.5473 121.589 21.4866 121.589 21.4866V14.2372C121.589 14.2372 118.819 12.2979 113.483 12.2979C107.505 12.2979 102.81 15.1761 96.566 15.1761C92.0121 15.1761 89.4769 14.2372 89.4769 14.2372C89.6177 15.3916 89.7116 16.5921 89.7116 17.8542L89.7273 17.8696Z" fill="#FF343E"/>
<path d="M88.2829 8.77386C88.2829 8.77386 91.2511 9.98298 95.6722 9.98298C102.733 9.98298 107.061 7.19271 113.169 7.19271C118.09 7.19271 121.589 8.77386 121.589 8.77386V1.47264C121.589 1.47264 118.293 0 112.903 0C105.78 0 100.781 2.68176 92.5321 2.68176C87.7205 2.68176 83.3463 1.47264 83.3463 1.47264C85.5334 3.39483 87.1894 5.82857 88.2829 8.77386Z" fill="#FF343E"/>
<path d="M0 1.44681H18.2724C25.1128 1.44681 29.2202 4.25479 29.2202 9.70011C29.2202 13.3613 27.3305 15.9521 23.6447 17.2088C27.9083 18.7136 29.9229 21.1492 29.9229 25.0432C29.9229 31.8382 24.7223 34.2894 17.4603 34.2894H0V1.44681ZM16.4764 14.618C19.4437 14.618 20.6306 13.7337 20.6306 11.3756C20.6306 9.21919 19.3031 8.31939 16.4764 8.31939H8.49587V14.6024H16.4764V14.618ZM16.898 27.3237C20.0684 27.2772 21.2865 26.2377 21.2865 23.8952C21.2865 21.5526 20.1464 20.5132 16.898 20.5132H8.49587V27.3547L16.898 27.3082V27.3237Z" fill="#1D58BA"/>
<path d="M35.4696 1.44681H44.0816V34.2894H35.4696V1.44681Z" fill="#1D58BA"/>
<path d="M51.3799 1.44681H66.8657C77.2104 1.44681 83.4923 7.45346 83.4923 17.8215C83.4923 28.1896 77.2104 34.2894 66.8657 34.2894H51.3799V1.44681ZM66.3032 26.9324C71.6005 26.9324 74.7102 24.2162 74.7102 17.9302C74.7102 11.6441 71.5849 8.81931 66.3032 8.81931H60.0213V26.9324H66.3032Z" fill="#1D58BA"/>
<path d="M127.72 1.44681H136.918L150.753 21.6242H150.941V1.44681H159.248V34.2894H150.425L136.215 13.5067H136.028V34.2894H127.72V1.44681Z" fill="#1D58BA"/>
</svg>
