<?xml version="1.0" encoding="utf-8"?>
<!-- Generator: Adobe Illustrator 25.0.1, SVG Export Plug-In . SVG Version: 6.00 Build 0)  -->
<svg version="1.0" id="Layer_1" xmlns="http://www.w3.org/2000/svg"
	xmlns:xlink="http://www.w3.org/1999/xlink" x="0px" y="0px"
	viewBox="0 0 884 569" style="enable-background:new 0 0 884 569;" xml:space="preserve">
<style type="text/css">
	.st0{fill:#16AB03;}
	.st1{fill:#5E33BF;}
	.st2{fill:none;}
</style>
<path class="st0" d="M105.5,321.7c2.1,5.6,4.6,11,7.6,16.1c2.2,3.7,4.5,7.3,7.1,10.8c25-6.2,47.8-19.3,65.6-37.9
	c-4.1-9.4-9.4-18.2-16-26.1C153.5,304.2,130.7,317.4,105.5,321.7z"/>
<path class="st1" d="M120.2,220.4c-6.2,8.2-11.1,17.3-14.6,26.9c25.2,4.3,48,17.5,64.3,37.2c6.6-7.9,11.9-16.7,16-26.1
	C168,239.7,145.2,226.6,120.2,220.4z"/>
<path d="M105.5,321.7c-7.8-20.8-8.9-43.4-3.1-64.8c0.9-3.3,1.9-6.4,3.1-9.6c-5.9-1-11.8-1.5-17.8-1.5c-4.3,0-8.6,0.3-12.8,0.8
	c-7.2,24.8-7.2,51.1,0,75.8c4.3,0.5,8.5,0.8,12.8,0.8C93.7,323.2,99.6,322.7,105.5,321.7z"/>
<path d="M273,318.8c13.6,0,24-7.3,27.9-19.5h22.4c-6,24.2-27.1,38.3-50.3,38.3c-30.2,0-53.5-22.1-53.5-53.1s23.3-53.1,53.5-53.1
	c23.2,0,44.3,14.1,50.3,38.3h-22.5c-3.8-12.2-14.2-19.5-27.8-19.5c-19.4,0-32.3,14.7-32.3,34.3S253.6,318.8,273,318.8z"/>
<path d="M352.8,335.8h-18.9V233.2h18.9V335.8z"/>
<path d="M405.2,291.1c0-4.8-3.8-7.9-11.1-7.9c-6.8,0-15.3,3.4-20.2,6.3l-7.5-14.4c8.7-5.2,18.6-8.1,28.7-8.2
	c15.3,0,29.2,7,29.2,24.8v44.1h-19.1v-6.3c-3.5,5.3-11.1,8.1-18.8,8.1c-14.2,0-23.5-10.1-23.5-21.1c0-12.8,9.4-20.7,24.3-20.7h13.2
	c3.2,0,4.7-1.5,4.7-4L405.2,291.1z M405.2,311.8v-4.8c-1.2,1.2-3.2,1.5-5.9,1.5h-7.2c-6,0-9.5,2.6-9.5,7.3c0,4.5,3.7,7.9,9.5,7.9
	C399.1,323.7,405.2,320.1,405.2,311.8z"/>
<path d="M476.8,287.4h-8.1c-9.7,0-14.1,4.5-14.1,16.3v32.1h-19.1v-67.2h18.5v10.7c2.6-7.2,9.1-11.6,17.5-11.6c1.8,0,3.6,0.2,5.3,0.6
	V287.4z"/>
<path d="M514.2,335.8h-19.1v-51h-9.4v-16.2h28.4V335.8z M503.8,233.2c6.8,0,12.3,5.5,12.3,12.3c0,0,0,0,0,0.1
	c-0.2,6.8-5.8,12.1-12.6,11.9c-6.5-0.2-11.7-5.4-11.9-11.9C491.6,238.7,497,233.2,503.8,233.2z"/>
<path d="M557,315.3l15.2-46.6h20.1l-23.9,67.2h-23.6L522,268.7h20.7L557,315.3z"/>
<path d="M635.5,291.1c0-4.8-3.8-7.9-11.2-7.9c-6.7,0-15.2,3.4-20.2,6.3l-7.5-14.4c8.7-5.2,18.6-8.1,28.7-8.2
	c15.2,0,29.2,7,29.2,24.8v44.1h-19.1v-6.3c-3.5,5.3-11.2,8.1-18.8,8.1c-14.2,0-23.5-10.1-23.5-21.1c0-12.8,9.4-20.7,24.3-20.7h13.2
	c3.2,0,4.7-1.5,4.7-4V291.1z M635.5,311.8v-4.8c-1.2,1.2-3.2,1.5-5.9,1.5h-7.2c-6,0-9.5,2.6-9.5,7.3c0,4.5,3.7,7.9,9.5,7.9
	C629.3,323.7,635.5,320.1,635.5,311.8z"/>
<path d="M691.4,243.1v25.5h14.5v16.1h-14.5v30.4c0,4.2,3.4,4.8,6.3,4.8c4.8,0,8.8-0.4,8.8-0.4v16.3c0,0-9.2,0.9-14.8,0.9
	c-9.5,0-19.4-1.6-19.4-15.1v-36.8h-10.6v-16.1h10.6v-25.5H691.4z"/>
<path d="M782,307.8h-50c0.9,7.8,7.6,13.6,15.4,13.5c5.6,0,10.8-2.4,13.5-6.9l19.8,2.1c-6,14.4-18.6,21.1-33.6,21.1
	c-20.1,0-35.2-14.8-35.2-35.3s14.8-35.4,34.9-35.4c18.5,0,35.2,12,35.2,40.2L782,307.8z M731.5,295.1h30.1
	c-1.1-7.3-7.5-12.5-14.8-12.3C739.4,282.5,732.9,287.7,731.5,295.1L731.5,295.1z"/>
<path d="M792.3,238h-5.1v13.5h-5.3V238h-5.1v-4.8h15.6L792.3,238z"/>
<path d="M802.8,247.6l-2.3-6.5v10.4h-5.1v-18.2h7l2.7,7.6l2.8-7.6h6.6v18.2h-5.2v-10.4l-2.3,6.5H802.8z"/>
<rect x="42" y="198" class="st2" width="800" height="173"/>
</svg>