<svg width="252" height="83" viewBox="0 0 252 83" fill="none" xmlns="http://www.w3.org/2000/svg">
<g clip-path="url(#clip0)">
<path d="M183.846 11.4483V0.37207H184.904V5.12766H191.533V0.37207H192.591V11.4483H191.533V6.01913H184.904V11.4483H183.846Z" fill="white"/>
<path d="M197.775 11.6626C197.257 11.6526 196.772 11.5587 196.321 11.3845C195.87 11.2102 195.476 10.9488 195.137 10.6002C194.802 10.2517 194.534 9.81602 194.337 9.29321C194.14 8.77039 194.042 8.16044 194.042 7.46336C194.042 6.88022 194.12 6.33395 194.276 5.82454C194.432 5.31848 194.666 4.87275 194.978 4.49405C195.29 4.11534 195.68 3.81372 196.144 3.59253C196.612 3.37134 197.155 3.26074 197.779 3.26074C198.413 3.26074 198.962 3.37134 199.43 3.59253C199.898 3.81372 200.285 4.11199 200.597 4.48399C200.909 4.85935 201.139 5.30173 201.288 5.81449C201.438 6.32725 201.516 6.87687 201.516 7.46001C201.516 8.09677 201.427 8.66985 201.251 9.18261C201.075 9.69537 200.824 10.1378 200.495 10.5064C200.169 10.8751 199.773 11.1599 199.312 11.361C198.847 11.5621 198.335 11.6626 197.775 11.6626ZM200.515 7.46336C200.515 6.99082 200.464 6.55179 200.359 6.13957C200.254 5.7307 200.095 5.37211 199.878 5.07048C199.661 4.76886 199.379 4.53091 199.037 4.35664C198.694 4.18237 198.274 4.09523 197.775 4.09523C197.287 4.09523 196.87 4.18907 196.521 4.3801C196.171 4.57113 195.89 4.82248 195.673 5.13416C195.456 5.44584 195.293 5.80443 195.192 6.20995C195.086 6.61546 195.036 7.03438 195.036 7.46336C195.036 7.95601 195.097 8.40845 195.215 8.82402C195.334 9.23959 195.507 9.59483 195.737 9.8931C195.965 10.1914 196.249 10.4226 196.592 10.5868C196.934 10.7511 197.328 10.8315 197.775 10.8315C198.264 10.8315 198.681 10.7376 199.03 10.5466C199.376 10.3556 199.661 10.1042 199.878 9.78586C200.095 9.46748 200.258 9.10888 200.359 8.71007C200.461 8.31126 200.515 7.89569 200.515 7.46336Z" fill="white"/>
<path d="M209.65 10.2184L211.766 3.48218H212.716L210.101 11.4517H209.105L207.345 4.75905H207.314L205.524 11.4517H204.405L201.946 3.48218H202.879L204.964 10.2821L206.833 3.48218H207.877L209.65 10.2184Z" fill="white"/>
<path d="M184.235 28.1683V17.092H185.293V28.1683H184.235Z" fill="white"/>
<path d="M188.593 28.1682H187.66V20.1986H188.593V21.3079C188.966 20.9192 189.352 20.6008 189.752 20.3528C190.152 20.1081 190.631 19.9841 191.194 19.9841C191.692 19.9841 192.153 20.0679 192.58 20.2388C193.004 20.4064 193.364 20.7013 193.655 21.1236C193.852 21.4118 193.971 21.7067 194.005 22.0084C194.042 22.31 194.059 22.625 194.059 22.9534V28.1682H193.126V22.9702C193.126 22.253 192.967 21.7134 192.645 21.3548C192.323 20.9962 191.79 20.8153 191.041 20.8153C190.749 20.8153 190.485 20.8588 190.247 20.946C190.01 21.0331 189.793 21.1471 189.6 21.2912C189.406 21.4353 189.244 21.5995 189.108 21.7838C188.972 21.9681 188.871 22.1625 188.796 22.367C188.701 22.6217 188.647 22.8697 188.627 23.1043C188.606 23.3389 188.596 23.5969 188.596 23.8717V28.1682H188.593Z" fill="white"/>
<path d="M196.467 25.6748C196.612 26.3618 196.874 26.8477 197.253 27.1292C197.633 27.4108 198.176 27.5515 198.881 27.5515C199.223 27.5515 199.518 27.5113 199.769 27.4275C200.017 27.3471 200.224 27.2365 200.383 27.0957C200.542 26.9583 200.665 26.8008 200.749 26.6265C200.831 26.4523 200.875 26.2679 200.875 26.0736C200.875 25.6848 200.746 25.3932 200.495 25.2056C200.241 25.0145 199.922 24.8671 199.539 24.7598C199.156 24.6526 198.739 24.5587 198.294 24.4817C197.847 24.4046 197.433 24.2906 197.05 24.1365C196.667 23.9823 196.348 23.7611 196.094 23.4763C195.839 23.188 195.714 22.7859 195.714 22.2597C195.714 21.5928 195.961 21.0465 196.453 20.6209C196.945 20.1953 197.643 19.9841 198.545 19.9841C199.417 19.9841 200.125 20.1752 200.671 20.5606C201.217 20.946 201.546 21.5894 201.658 22.491H200.709C200.624 21.8743 200.39 21.442 200 21.1906C199.61 20.9393 199.122 20.8153 198.528 20.8153C197.935 20.8153 197.484 20.9426 197.175 21.1906C196.863 21.442 196.707 21.7738 196.707 22.1826C196.707 22.5412 196.833 22.816 197.087 23.0071C197.341 23.1981 197.66 23.3523 198.043 23.4696C198.427 23.5869 198.844 23.6941 199.288 23.7846C199.735 23.8784 200.149 24.0091 200.532 24.1767C200.915 24.3443 201.234 24.5755 201.489 24.8604C201.743 25.1452 201.868 25.5474 201.868 26.0602C201.868 26.4389 201.784 26.774 201.621 27.0689C201.455 27.3605 201.227 27.6051 200.936 27.7995C200.644 27.9939 200.302 28.1414 199.902 28.2386C199.501 28.3357 199.064 28.386 198.586 28.386C198.108 28.386 197.684 28.3156 197.318 28.1782C196.948 28.0408 196.636 27.8464 196.375 27.6018C196.114 27.3571 195.914 27.0689 195.768 26.7405C195.622 26.4121 195.541 26.0602 195.521 25.6781H196.467V25.6748Z" fill="white"/>
<path d="M206.148 28.1984C206.032 28.2185 205.883 28.2553 205.697 28.3056C205.51 28.3559 205.303 28.3827 205.073 28.3827C204.605 28.3827 204.249 28.2688 204.008 28.0375C203.764 27.8063 203.642 27.394 203.642 26.7975V20.9661H202.506V20.1987H203.642V17.9834H204.574V20.1987H206.083V20.9661H204.574V26.4255C204.574 26.6199 204.581 26.7908 204.591 26.9349C204.601 27.079 204.632 27.1963 204.686 27.2902C204.737 27.384 204.818 27.4477 204.927 27.4912C205.035 27.5315 205.188 27.5516 205.385 27.5516C205.51 27.5516 205.636 27.5415 205.765 27.5214C205.893 27.5013 206.022 27.4745 206.144 27.4443V28.1984H206.148Z" fill="white"/>
<path d="M207.348 18.4628V17.092H208.376V18.4594H207.348V18.4628ZM207.392 28.1683V20.1988H208.325V28.1683H207.392Z" fill="white"/>
<path d="M213.154 28.1984C213.038 28.2185 212.889 28.2553 212.703 28.3056C212.516 28.3559 212.309 28.3827 212.079 28.3827C211.611 28.3827 211.255 28.2688 211.014 28.0375C210.77 27.8063 210.648 27.394 210.648 26.7975V20.9661H209.512V20.1987H210.648V17.9834H211.58V20.1987H213.089V20.9661H211.58V26.4255C211.58 26.6199 211.587 26.7908 211.597 26.9349C211.607 27.079 211.638 27.1963 211.692 27.2902C211.743 27.384 211.824 27.4477 211.933 27.4912C212.041 27.5315 212.194 27.5516 212.391 27.5516C212.516 27.5516 212.642 27.5415 212.77 27.5214C212.899 27.5013 213.028 27.4745 213.15 27.4443V28.1984H213.154Z" fill="white"/>
<path d="M219.722 20.1987H220.654V28.1683H219.722V27.0623C219.596 27.2064 219.457 27.3539 219.301 27.5081C219.145 27.6622 218.965 27.803 218.765 27.9303C218.562 28.0577 218.328 28.1649 218.057 28.2521C217.785 28.3392 217.477 28.3828 217.124 28.3828C216.585 28.3828 216.134 28.309 215.771 28.1582C215.408 28.0108 215.113 27.803 214.893 27.5349C214.669 27.2668 214.51 26.9584 214.411 26.6032C214.313 26.248 214.262 25.8625 214.262 25.4403V20.1987H215.195V25.4302C215.195 26.1172 215.354 26.6434 215.676 27.0087C215.998 27.374 216.527 27.555 217.263 27.555C217.646 27.555 217.992 27.4813 218.297 27.3304C218.603 27.183 218.86 26.9752 219.067 26.7071C219.274 26.439 219.437 26.1239 219.549 25.7519C219.664 25.3833 219.718 24.9778 219.718 24.5354V20.1987H219.722Z" fill="white"/>
<path d="M225.354 28.1984C225.238 28.2185 225.089 28.2553 224.903 28.3056C224.716 28.3559 224.509 28.3827 224.279 28.3827C223.811 28.3827 223.455 28.2688 223.214 28.0375C222.97 27.8063 222.848 27.394 222.848 26.7975V20.9661H221.712V20.1987H222.848V17.9834H223.78V20.1987H225.289V20.9661H223.78V26.4255C223.78 26.6199 223.787 26.7908 223.797 26.9349C223.807 27.079 223.838 27.1963 223.892 27.2902C223.943 27.384 224.024 27.4477 224.133 27.4912C224.242 27.5315 224.394 27.5516 224.591 27.5516C224.716 27.5516 224.842 27.5415 224.971 27.5214C225.099 27.5013 225.228 27.4745 225.35 27.4443V28.1984H225.354Z" fill="white"/>
<path d="M226.554 18.4628V17.092H227.582V18.4594H226.554V18.4628ZM226.598 28.1683V20.1988H227.531V28.1683H226.598Z" fill="white"/>
<path d="M232.732 28.3828C232.214 28.3728 231.729 28.2789 231.278 28.1047C230.827 27.9304 230.433 27.669 230.094 27.3205C229.759 26.9719 229.491 26.5362 229.294 26.0134C229.097 25.4906 228.999 24.8807 228.999 24.1836C228.999 23.6004 229.077 23.0542 229.233 22.5448C229.389 22.0387 229.623 21.593 229.935 21.2143C230.247 20.8356 230.637 20.5339 231.101 20.3127C231.569 20.0916 232.112 19.981 232.736 19.981C233.37 19.981 233.919 20.0916 234.387 20.3127C234.855 20.5339 235.242 20.8322 235.554 21.2042C235.866 21.5796 236.096 22.0219 236.245 22.5347C236.395 23.0475 236.473 23.5971 236.473 24.1802C236.473 24.817 236.384 25.3901 236.208 25.9028C236.032 26.4156 235.781 26.858 235.452 27.2266C235.126 27.5953 234.73 27.8801 234.269 28.0812C233.804 28.2823 233.292 28.3828 232.732 28.3828ZM235.472 24.1836C235.472 23.711 235.421 23.272 235.316 22.8598C235.211 22.4509 235.052 22.0923 234.835 21.7907C234.618 21.4891 234.336 21.2511 233.994 21.0769C233.651 20.9026 233.231 20.8154 232.732 20.8154C232.244 20.8154 231.827 20.9093 231.478 21.1003C231.129 21.2913 230.847 21.5427 230.63 21.8544C230.413 22.166 230.25 22.5246 230.149 22.9302C230.043 23.3357 229.993 23.7546 229.993 24.1836C229.993 24.6762 230.054 25.1287 230.172 25.5442C230.291 25.9598 230.464 26.315 230.694 26.6133C230.922 26.9116 231.207 27.1428 231.549 27.3071C231.891 27.4713 232.285 27.5517 232.732 27.5517C233.221 27.5517 233.638 27.4579 233.987 27.2668C234.333 27.0758 234.618 26.8245 234.835 26.5061C235.052 26.1877 235.215 25.8291 235.316 25.4303C235.418 25.0315 235.472 24.6159 235.472 24.1836Z" fill="white"/>
<path d="M238.725 28.1682H237.792V20.1986H238.725V21.3079C239.098 20.9192 239.484 20.6008 239.884 20.3528C240.284 20.1081 240.762 19.9841 241.325 19.9841C241.824 19.9841 242.285 20.0679 242.712 20.2388C243.136 20.4064 243.496 20.7013 243.787 21.1236C243.984 21.4118 244.103 21.7067 244.136 22.0084C244.174 22.31 244.191 22.625 244.191 22.9534V28.1682H243.258V22.9702C243.258 22.253 243.099 21.7134 242.777 21.3548C242.455 20.9962 241.922 20.8153 241.173 20.8153C240.881 20.8153 240.617 20.8588 240.379 20.946C240.142 21.0331 239.925 21.1471 239.732 21.2912C239.538 21.4353 239.376 21.5995 239.24 21.7838C239.104 21.9681 239.003 22.1625 238.928 22.367C238.833 22.6217 238.779 22.8697 238.758 23.1043C238.738 23.3389 238.728 23.5969 238.728 23.8717V28.1682H238.725Z" fill="white"/>
<path d="M246.598 25.6748C246.744 26.3618 247.005 26.8477 247.385 27.1292C247.764 27.4108 248.307 27.5515 249.012 27.5515C249.355 27.5515 249.65 27.5113 249.901 27.4275C250.148 27.3471 250.355 27.2365 250.514 27.0957C250.674 26.9583 250.796 26.8008 250.881 26.6265C250.962 26.4523 251.006 26.2679 251.006 26.0736C251.006 25.6848 250.877 25.3932 250.626 25.2056C250.372 25.0145 250.053 24.8671 249.67 24.7598C249.287 24.6526 248.87 24.5587 248.426 24.4817C247.978 24.4046 247.564 24.2906 247.181 24.1365C246.798 23.9823 246.479 23.7611 246.225 23.4763C245.971 23.188 245.845 22.7859 245.845 22.2597C245.845 21.5928 246.093 21.0465 246.584 20.6209C247.076 20.1953 247.775 19.9841 248.677 19.9841C249.548 19.9841 250.257 20.1752 250.803 20.5606C251.349 20.946 251.678 21.5894 251.789 22.491H250.84C250.755 21.8743 250.521 21.442 250.131 21.1906C249.741 20.9393 249.253 20.8153 248.66 20.8153C248.066 20.8153 247.615 20.9426 247.307 21.1906C246.995 21.442 246.839 21.7738 246.839 22.1826C246.839 22.5412 246.964 22.816 247.218 23.0071C247.473 23.1981 247.792 23.3523 248.175 23.4696C248.558 23.5869 248.975 23.6941 249.419 23.7846C249.867 23.8784 250.28 24.0091 250.664 24.1767C251.047 24.3443 251.366 24.5755 251.62 24.8604C251.874 25.1452 252 25.5474 252 26.0602C252 26.4389 251.915 26.774 251.752 27.0689C251.586 27.3605 251.359 27.6051 251.067 27.7995C250.776 27.9939 250.433 28.1414 250.033 28.2386C249.633 28.3357 249.195 28.386 248.717 28.386C248.239 28.386 247.815 28.3156 247.449 28.1782C247.079 28.0408 246.767 27.8464 246.506 27.6018C246.245 27.3571 246.045 27.0689 245.899 26.7405C245.754 26.4121 245.672 26.0602 245.652 25.6781H246.598V25.6748Z" fill="white"/>
<path d="M191.814 37.0295C191.597 36.0844 191.19 35.4141 190.6 35.0153C190.01 34.6165 189.237 34.4154 188.281 34.4154C187.606 34.4154 187.026 34.5494 186.538 34.8142C186.05 35.0823 185.65 35.4409 185.331 35.89C185.015 36.3424 184.781 36.8619 184.629 37.4517C184.48 38.0416 184.402 38.6649 184.402 39.3218C184.402 39.9384 184.466 40.5417 184.595 41.1382C184.724 41.7314 184.941 42.2643 185.239 42.7301C185.541 43.196 185.945 43.5747 186.453 43.8595C186.962 44.1478 187.599 44.2919 188.369 44.2919C188.847 44.2919 189.281 44.2148 189.678 44.0606C190.071 43.9065 190.417 43.6953 190.712 43.4239C191.007 43.1524 191.258 42.8307 191.458 42.462C191.662 42.0934 191.814 41.6879 191.916 41.2455H193.021C192.896 41.7783 192.716 42.2844 192.475 42.7603C192.238 43.2362 191.923 43.6551 191.533 44.0137C191.143 44.3723 190.671 44.6572 190.115 44.8683C189.559 45.0794 188.908 45.1833 188.162 45.1833C187.301 45.1833 186.565 45.0258 185.951 44.7141C185.338 44.4025 184.839 43.9768 184.449 43.444C184.059 42.9111 183.778 42.2945 183.601 41.5907C183.425 40.8869 183.337 40.1429 183.337 39.352C183.337 38.2963 183.469 37.3981 183.734 36.6608C183.998 35.9235 184.364 35.3203 184.832 34.8544C185.3 34.3886 185.85 34.0501 186.484 33.839C187.118 33.6278 187.806 33.5239 188.552 33.5239C189.122 33.5239 189.654 33.5977 190.146 33.7485C190.638 33.8959 191.075 34.1205 191.455 34.4187C191.835 34.717 192.147 35.0823 192.387 35.518C192.631 35.9537 192.801 36.4597 192.893 37.0328H191.814V37.0295Z" fill="white"/>
<path d="M198.274 40.2433C198.45 40.2232 198.66 40.1931 198.905 40.1495C199.149 40.1093 199.349 40.0523 199.505 39.9819C199.661 39.9115 199.756 39.7909 199.793 39.62C199.83 39.4524 199.847 39.2949 199.847 39.1508C199.847 38.6782 199.695 38.2928 199.389 37.9879C199.084 37.6862 198.565 37.5354 197.84 37.5354C197.518 37.5354 197.223 37.5622 196.951 37.6192C196.68 37.6762 196.446 37.7734 196.243 37.9108C196.039 38.0482 195.873 38.2325 195.744 38.4637C195.615 38.695 195.527 38.9832 195.486 39.3318H194.537C194.568 38.8592 194.676 38.457 194.863 38.1253C195.049 37.7935 195.29 37.5187 195.585 37.3109C195.88 37.0997 196.222 36.9456 196.612 36.8484C197.002 36.7512 197.413 36.7009 197.85 36.7009C198.253 36.7009 198.637 36.7445 198.993 36.8316C199.352 36.9188 199.661 37.0562 199.925 37.2472C200.19 37.4382 200.397 37.6896 200.549 38.008C200.698 38.3263 200.776 38.7151 200.776 39.1776V43.5143C200.776 43.8729 200.841 44.1008 200.97 44.1979C201.098 44.2951 201.36 44.2717 201.756 44.1276V44.8515C201.685 44.8716 201.577 44.9017 201.438 44.9419C201.298 44.9822 201.159 45.0023 201.024 45.0023C200.878 45.0023 200.739 44.9855 200.603 44.9554C200.447 44.9352 200.322 44.885 200.23 44.8079C200.135 44.7308 200.061 44.6403 200.003 44.5297C199.946 44.4225 199.908 44.3052 199.888 44.1745C199.868 44.0471 199.857 43.9097 199.857 43.7656C199.464 44.1946 199.013 44.523 198.504 44.7509C197.996 44.9755 197.446 45.0894 196.853 45.0894C196.5 45.0894 196.161 45.0425 195.832 44.952C195.507 44.8582 195.219 44.7174 194.968 44.5197C194.72 44.3253 194.52 44.0873 194.378 43.8058C194.232 43.5243 194.161 43.1892 194.161 42.7971C194.161 41.4431 195.1 40.6421 196.978 40.3975L198.274 40.2433ZM199.844 40.7058C199.45 40.87 199.05 40.9773 198.647 41.0275C198.243 41.0778 197.836 41.1214 197.433 41.1515C196.717 41.2018 196.158 41.3627 195.761 41.6274C195.361 41.8956 195.161 42.2977 195.161 42.844C195.161 43.0886 195.208 43.3031 195.31 43.4841C195.408 43.6651 195.537 43.8125 195.7 43.9298C195.859 44.0471 196.049 44.1343 196.26 44.1912C196.473 44.2482 196.687 44.275 196.904 44.275C197.277 44.275 197.64 44.2281 197.992 44.1376C198.345 44.0438 198.66 43.903 198.935 43.7153C199.21 43.5243 199.43 43.283 199.596 42.9914C199.762 42.6999 199.844 42.3547 199.844 41.9525V40.7058Z" fill="white"/>
<path d="M203.767 44.8884H202.835V36.9188H203.767V38.0281C204.14 37.6394 204.527 37.321 204.927 37.073C205.327 36.8283 205.805 36.7043 206.368 36.7043C206.867 36.7043 207.328 36.7881 207.755 36.9591C208.179 37.1266 208.539 37.4215 208.83 37.8438C209.027 38.132 209.145 38.4269 209.179 38.7286C209.217 39.0302 209.234 39.3452 209.234 39.6737V44.8884H208.301V39.6904C208.301 38.9732 208.142 38.4337 207.82 38.0751C207.497 37.7165 206.965 37.5355 206.216 37.5355C205.924 37.5355 205.66 37.5791 205.422 37.6662C205.185 37.7533 204.968 37.8673 204.778 38.0114C204.585 38.1555 204.422 38.3197 204.286 38.504C204.151 38.6884 204.049 38.8827 203.974 39.0872C203.879 39.3419 203.825 39.5899 203.805 39.8245C203.784 40.0591 203.774 40.3171 203.774 40.5919V44.8884H203.767Z" fill="white"/>
<path d="M183.859 61.6083V50.532H191.316V51.4234H184.921V55.4216H190.695V56.3131H184.921V60.7134H191.472V61.6049H183.859V61.6083Z" fill="white"/>
<path d="M193.649 61.6084H192.716V53.6388H193.649V54.8386H193.679C193.917 54.3761 194.259 54.0276 194.707 53.7863C195.154 53.545 195.639 53.4243 196.168 53.4243C196.541 53.4243 196.86 53.4645 197.118 53.5483C197.375 53.6287 197.596 53.7393 197.779 53.8801C197.959 54.0175 198.111 54.1817 198.23 54.3661C198.349 54.5504 198.45 54.7515 198.532 54.9659C198.803 54.4431 199.162 54.0577 199.613 53.803C200.064 53.5517 200.58 53.4277 201.163 53.4277C201.712 53.4277 202.15 53.5182 202.479 53.6958C202.804 53.8768 203.059 54.1113 203.235 54.4029C203.411 54.6945 203.527 55.0296 203.584 55.4117C203.642 55.7904 203.669 56.1791 203.669 56.5813V61.6117H202.736V56.1021C202.736 55.529 202.614 55.0765 202.37 54.7481C202.126 54.4197 201.672 54.2555 201.007 54.2555C200.665 54.2555 200.336 54.3292 200.02 54.48C199.705 54.6275 199.427 54.8554 199.186 55.1637C199.081 55.2977 198.996 55.4552 198.928 55.6329C198.861 55.8138 198.806 55.9982 198.766 56.1959C198.725 56.3903 198.694 56.5847 198.681 56.779C198.664 56.9734 198.657 57.1544 198.657 57.3186V61.6117H197.725V56.1021C197.725 55.529 197.603 55.0765 197.358 54.7481C197.114 54.4197 196.66 54.2555 195.995 54.2555C195.653 54.2555 195.324 54.3292 195.009 54.48C194.693 54.6275 194.415 54.8554 194.174 55.1637C194.069 55.2977 193.985 55.4552 193.917 55.6329C193.849 55.8138 193.795 55.9982 193.754 56.1959C193.713 56.3903 193.683 56.5847 193.669 56.779C193.652 56.9734 193.645 57.1544 193.645 57.3186V61.6084H193.649Z" fill="white"/>
<path d="M206.46 61.6083H205.527V50.532H206.46V54.9156C206.762 54.4229 207.172 54.0509 207.698 53.7996C208.22 53.5482 208.769 53.4242 209.339 53.4242C209.952 53.4242 210.481 53.5382 210.936 53.7694C211.387 54.0007 211.76 54.309 212.055 54.691C212.35 55.0764 212.57 55.5255 212.716 56.0383C212.862 56.551 212.933 57.0839 212.933 57.6369C212.933 58.22 212.865 58.7696 212.73 59.2824C212.594 59.7952 212.38 60.2375 212.082 60.6129C211.787 60.9883 211.411 61.2832 210.953 61.4977C210.495 61.7122 209.942 61.8194 209.288 61.8194C209.027 61.8194 208.762 61.7825 208.494 61.7122C208.223 61.6418 207.962 61.5379 207.708 61.4038C207.453 61.2698 207.219 61.1022 207.006 60.9045C206.792 60.7034 206.619 60.4721 206.484 60.204H206.453V61.6083H206.46ZM206.46 57.5933C206.46 58.0759 206.521 58.525 206.64 58.9406C206.758 59.3561 206.931 59.7147 207.162 60.0164C207.389 60.318 207.674 60.5559 208.016 60.7302C208.359 60.9045 208.749 60.9916 209.183 60.9916C209.576 60.9916 209.939 60.9212 210.271 60.7838C210.604 60.6464 210.895 60.442 211.143 60.1772C211.39 59.9091 211.587 59.584 211.726 59.202C211.865 58.8166 211.936 58.3742 211.936 57.8715C211.957 57.3688 211.916 56.8996 211.811 56.4639C211.706 56.0282 211.539 55.6462 211.312 55.3177C211.085 54.9893 210.79 54.7313 210.434 54.5402C210.078 54.3492 209.657 54.2554 209.179 54.2554C208.752 54.2554 208.372 54.3458 208.037 54.5235C207.701 54.7011 207.413 54.9457 207.182 55.2474C206.948 55.549 206.768 55.9042 206.646 56.3097C206.521 56.7153 206.46 57.1442 206.46 57.5933Z" fill="white"/>
<path d="M215.517 61.6084H214.584V53.6388H215.517V55.1302H215.547C215.805 54.4934 216.141 54.051 216.551 53.7997C216.962 53.5483 217.504 53.4243 218.179 53.4243V54.423C217.65 54.413 217.212 54.4934 216.87 54.6677C216.527 54.8419 216.256 55.0765 216.053 55.3748C215.849 55.6731 215.71 56.025 215.632 56.4271C215.554 56.8327 215.517 57.2549 215.517 57.6973V61.6084Z" fill="white"/>
<path d="M223.035 56.9633C223.211 56.9432 223.421 56.913 223.665 56.8695C223.909 56.8292 224.11 56.7723 224.265 56.7019C224.421 56.6315 224.516 56.5109 224.554 56.3399C224.591 56.1724 224.608 56.0149 224.608 55.8708C224.608 55.3982 224.455 55.0128 224.15 54.7078C223.845 54.4062 223.326 54.2554 222.601 54.2554C222.278 54.2554 221.983 54.2822 221.712 54.3392C221.441 54.3961 221.207 54.4933 221.003 54.6307C220.8 54.7681 220.634 54.9525 220.505 55.1837C220.376 55.415 220.288 55.7032 220.247 56.0517H219.298C219.328 55.5792 219.437 55.177 219.623 54.8452C219.81 54.5134 220.051 54.2386 220.346 54.0309C220.641 53.8197 220.983 53.6655 221.373 53.5684C221.763 53.4712 222.173 53.4209 222.611 53.4209C223.014 53.4209 223.397 53.4645 223.753 53.5516C224.113 53.6387 224.421 53.7761 224.686 53.9672C224.95 54.1582 225.157 54.4096 225.31 54.7279C225.459 55.0463 225.537 55.4351 225.537 55.8976V60.2342C225.537 60.5928 225.602 60.8207 225.73 60.9179C225.859 61.0151 226.12 60.9916 226.517 60.8475V61.5714C226.446 61.5915 226.337 61.6217 226.198 61.6619C226.059 61.7021 225.92 61.7222 225.785 61.7222C225.639 61.7222 225.5 61.7055 225.364 61.6753C225.208 61.6552 225.083 61.6049 224.991 61.5279C224.896 61.4508 224.822 61.3603 224.764 61.2497C224.706 61.1425 224.669 61.0252 224.649 60.8945C224.628 60.7671 224.618 60.6297 224.618 60.4856C224.225 60.9146 223.774 61.243 223.265 61.4709C222.757 61.6954 222.207 61.8094 221.614 61.8094C221.261 61.8094 220.922 61.7625 220.593 61.672C220.268 61.5781 219.979 61.4374 219.728 61.2396C219.481 61.0453 219.281 60.8073 219.138 60.5258C218.993 60.2443 218.921 59.9092 218.921 59.517C218.921 58.1631 219.861 57.3621 221.739 57.1175L223.035 56.9633ZM224.608 57.4258C224.215 57.59 223.814 57.6972 223.411 57.7475C223.007 57.7978 222.601 57.8414 222.197 57.8715C221.482 57.9218 220.922 58.0827 220.525 58.3474C220.125 58.6155 219.925 59.0177 219.925 59.564C219.925 59.8086 219.973 60.0231 220.074 60.2007C220.173 60.3817 220.301 60.5292 220.464 60.6465C220.624 60.7638 220.814 60.8509 221.024 60.9079C221.237 60.9648 221.451 60.9916 221.668 60.9916C222.041 60.9916 222.404 60.9447 222.757 60.8542C223.109 60.7604 223.425 60.6196 223.699 60.432C223.974 60.2409 224.194 59.9996 224.36 59.7081C224.527 59.4165 224.608 59.0713 224.608 58.6691V57.4258Z" fill="white"/>
<path d="M233.309 56.149C233.143 55.5558 232.858 55.0899 232.455 54.7582C232.051 54.4264 231.536 54.2588 230.915 54.2588C230.437 54.2588 230.027 54.356 229.684 54.5504C229.342 54.7448 229.06 55.0028 228.843 55.3279C228.626 55.6496 228.464 56.0149 228.362 56.4204C228.257 56.826 228.206 57.2348 228.206 57.6437C228.206 58.066 228.253 58.4748 228.355 58.8736C228.453 59.2725 228.613 59.6344 228.83 59.9494C229.047 60.2678 229.328 60.5225 229.671 60.7102C230.013 60.9012 230.427 60.9951 230.915 60.9951C231.61 60.9951 232.17 60.804 232.587 60.4253C233.007 60.0466 233.275 59.5238 233.387 58.8569H234.384C234.299 59.2993 234.167 59.7014 233.987 60.0634C233.804 60.4287 233.574 60.7404 233.285 61.0018C233.001 61.2632 232.662 61.4676 232.265 61.6084C231.872 61.7525 231.42 61.8228 230.912 61.8228C230.268 61.8228 229.715 61.7156 229.247 61.5011C228.779 61.2866 228.396 60.9917 228.094 60.6164C227.792 60.241 227.568 59.7986 227.426 59.2859C227.28 58.7731 227.209 58.2235 227.209 57.6403C227.209 57.0874 227.29 56.5545 227.45 56.0484C227.609 55.539 227.846 55.0933 228.158 54.7012C228.47 54.3124 228.857 54.0008 229.318 53.7695C229.779 53.5383 230.312 53.4243 230.912 53.4243C231.844 53.4243 232.601 53.6455 233.177 54.0845C233.753 54.5269 234.113 55.2139 234.259 56.1456H233.309V56.149Z" fill="white"/>
<path d="M236.435 57.8414C236.435 58.2704 236.493 58.6793 236.605 59.0647C236.72 59.4501 236.886 59.7819 237.11 60.0634C237.334 60.3449 237.615 60.5694 237.958 60.7404C238.3 60.9079 238.694 60.9951 239.141 60.9951C239.755 60.9951 240.277 60.8376 240.715 60.5192C241.152 60.2008 241.44 59.7484 241.586 59.1652H242.627C242.512 59.5439 242.363 59.8958 242.176 60.2175C241.99 60.5393 241.756 60.8241 241.474 61.0621C241.193 61.3034 240.861 61.4911 240.477 61.6251C240.094 61.7592 239.647 61.8262 239.138 61.8262C238.494 61.8262 237.941 61.719 237.473 61.5045C237.005 61.29 236.622 60.9951 236.32 60.6197C236.018 60.2444 235.794 59.8053 235.652 59.2959C235.506 58.7865 235.435 58.2436 235.435 57.6571C235.435 57.0706 235.52 56.5243 235.693 56.0116C235.862 55.4988 236.106 55.0497 236.425 54.6643C236.741 54.2789 237.127 53.9773 237.585 53.7561C238.043 53.5349 238.561 53.4243 239.141 53.4243C240.25 53.4243 241.122 53.7997 241.756 54.5537C242.39 55.3078 242.698 56.4037 242.688 57.8381H236.435V57.8414ZM241.698 57.0706C241.698 56.6818 241.644 56.3132 241.535 55.9714C241.427 55.6295 241.264 55.3312 241.054 55.0799C240.84 54.8285 240.572 54.6275 240.254 54.48C239.931 54.3325 239.562 54.2555 239.148 54.2555C238.734 54.2555 238.368 54.3325 238.049 54.4867C237.734 54.6409 237.463 54.8453 237.239 55.1034C237.015 55.3581 236.835 55.6563 236.703 55.9948C236.568 56.3333 236.479 56.6919 236.439 57.0706H241.698Z" fill="white"/>
<path d="M183.859 78.3282V67.252H187.905C188.559 67.252 189.119 67.319 189.587 67.453C190.055 67.5871 190.434 67.7748 190.729 68.0228C191.024 68.2674 191.241 68.5623 191.374 68.9075C191.509 69.2527 191.577 69.6281 191.577 70.0369C191.577 70.4257 191.526 70.7642 191.421 71.0457C191.316 71.3272 191.184 71.5652 191.018 71.7528C190.851 71.9439 190.662 72.0913 190.448 72.1986C190.234 72.3058 190.014 72.3795 189.787 72.4231V72.4533C190.563 72.5672 191.143 72.8688 191.523 73.3615C191.903 73.8541 192.093 74.4708 192.093 75.2081C192.093 75.7812 192.001 76.2705 191.821 76.6693C191.638 77.0681 191.387 77.3932 191.065 77.6378C190.743 77.8825 190.356 78.0601 189.905 78.1674C189.454 78.2746 188.963 78.3282 188.434 78.3282H183.859ZM184.921 72.145H187.596C188.145 72.145 188.607 72.098 188.98 72.0075C189.353 71.9171 189.654 71.7797 189.882 71.5987C190.109 71.4211 190.272 71.1999 190.373 70.9385C190.472 70.6771 190.523 70.3754 190.523 70.0369C190.523 69.6884 190.465 69.3935 190.353 69.1522C190.238 68.9109 190.058 68.7165 189.807 68.569C189.56 68.4216 189.234 68.3143 188.834 68.2473C188.434 68.1803 187.945 68.1468 187.362 68.1468H184.917V72.145H184.921ZM184.921 77.4368H187.613C188.193 77.4368 188.698 77.41 189.132 77.3597C189.563 77.3094 189.919 77.2022 190.197 77.0447C190.478 76.8871 190.689 76.6592 190.828 76.3677C190.967 76.0761 191.038 75.6873 191.038 75.2047C191.038 74.7423 190.96 74.3703 190.804 74.0887C190.648 73.8072 190.424 73.5894 190.136 73.4352C189.844 73.2811 189.498 73.1772 189.092 73.1202C188.688 73.0632 188.237 73.0364 187.739 73.0364H184.921V77.4368Z" fill="white"/>
<path d="M193.805 68.6227V67.2554H194.832V68.6227H193.805ZM193.852 78.3283V70.3587H194.785V78.3283H193.852Z" fill="white"/>
<path d="M199.61 78.3585C199.495 78.3786 199.346 78.4155 199.159 78.4658C198.973 78.516 198.766 78.5428 198.535 78.5428C198.067 78.5428 197.711 78.4289 197.47 78.1976C197.226 77.9664 197.104 77.5542 197.104 76.9576V71.1263H195.968V70.3588H197.104V68.1436H198.037V70.3588H199.546V71.1263H198.037V76.5856C198.037 76.78 198.044 76.9509 198.054 77.095C198.064 77.2391 198.094 77.3565 198.149 77.4503C198.199 77.5441 198.281 77.6078 198.389 77.6514C198.498 77.6916 198.65 77.7117 198.847 77.7117C198.973 77.7117 199.098 77.7016 199.227 77.6815C199.356 77.6614 199.485 77.6346 199.607 77.6044V78.3585H199.61Z" fill="white"/>
<path d="M206.429 72.8689C206.263 72.2758 205.978 71.8099 205.574 71.4781C205.171 71.1463 204.655 70.9788 204.035 70.9788C203.557 70.9788 203.146 71.076 202.804 71.2703C202.461 71.4647 202.18 71.7228 201.963 72.0479C201.746 72.3696 201.583 72.7349 201.482 73.1404C201.376 73.5459 201.326 73.9548 201.326 74.3637C201.326 74.7859 201.373 75.1948 201.475 75.5936C201.573 75.9924 201.732 76.3544 201.949 76.6694C202.166 76.9844 202.448 77.2425 202.79 77.4302C203.133 77.6212 203.547 77.715 204.035 77.715C204.73 77.715 205.29 77.524 205.707 77.1453C206.127 76.7666 206.395 76.2438 206.507 75.5768H207.504C207.419 76.0192 207.287 76.4214 207.107 76.7833C206.924 77.1486 206.693 77.4603 206.405 77.7217C206.12 77.9831 205.781 78.1876 205.384 78.3283C204.991 78.4724 204.54 78.5428 204.031 78.5428C203.387 78.5428 202.834 78.4356 202.367 78.2211C201.899 78.0066 201.515 77.7117 201.214 77.3363C200.912 76.961 200.688 76.5186 200.546 76.0058C200.4 75.4931 200.329 74.9434 200.329 74.3603C200.329 73.8073 200.41 73.2745 200.569 72.7684C200.729 72.259 200.966 71.8133 201.278 71.4212C201.59 71.0324 201.977 70.7207 202.438 70.4895C202.899 70.2582 203.431 70.1443 204.031 70.1443C204.964 70.1443 205.72 70.3655 206.297 70.8045C206.873 71.2469 207.233 71.9339 207.378 72.8656H206.429V72.8689Z" fill="white"/>
<path d="M212.187 78.5462C211.668 78.5361 211.183 78.4423 210.732 78.268C210.281 78.0937 209.888 77.8323 209.549 77.4838C209.213 77.1352 208.945 76.6996 208.749 76.1767C208.552 75.6539 208.454 75.044 208.454 74.3469C208.454 73.7638 208.532 73.2175 208.688 72.7081C208.844 72.202 209.078 71.7563 209.39 71.3776C209.701 70.9989 210.091 70.6973 210.556 70.4761C211.024 70.2549 211.566 70.1443 212.19 70.1443C212.825 70.1443 213.374 70.2549 213.842 70.4761C214.31 70.6973 214.696 70.9955 215.008 71.3675C215.32 71.7429 215.551 72.1853 215.7 72.698C215.849 73.2108 215.927 73.7604 215.927 74.3435C215.927 74.9803 215.839 75.5534 215.663 76.0661C215.486 76.5789 215.235 77.0213 214.907 77.3899C214.581 77.7586 214.184 78.0434 213.723 78.2445C213.259 78.4456 212.747 78.5462 212.187 78.5462ZM214.927 74.3435C214.927 73.871 214.876 73.432 214.771 73.0198C214.666 72.6109 214.506 72.2523 214.289 71.9507C214.072 71.649 213.791 71.4111 213.448 71.2368C213.106 71.0626 212.685 70.9754 212.187 70.9754C211.699 70.9754 211.282 71.0693 210.932 71.2603C210.583 71.4513 210.302 71.7027 210.085 72.0143C209.868 72.326 209.705 72.6846 209.603 73.0901C209.498 73.4956 209.447 73.9146 209.447 74.3435C209.447 74.8362 209.508 75.2886 209.627 75.7042C209.746 76.1198 209.918 76.475 210.149 76.7733C210.376 77.0716 210.661 77.3028 211.004 77.467C211.346 77.6312 211.739 77.7117 212.187 77.7117C212.675 77.7117 213.092 77.6178 213.442 77.4268C213.788 77.2358 214.072 76.9844 214.289 76.666C214.506 76.3477 214.669 75.9891 214.771 75.5903C214.873 75.1914 214.927 74.7759 214.927 74.3435Z" fill="white"/>
<path d="M217.338 68.6227V67.2554H218.365V68.6227H217.338ZM217.385 78.3283V70.3587H218.318V78.3283H217.385Z" fill="white"/>
<path d="M221.244 78.3283H220.312V70.3588H221.244V71.4681C221.617 71.0793 222.004 70.7609 222.404 70.5129C222.804 70.2683 223.282 70.1443 223.845 70.1443C224.343 70.1443 224.804 70.2281 225.232 70.399C225.656 70.5666 226.015 70.8615 226.307 71.2837C226.503 71.572 226.622 71.8669 226.656 72.1685C226.693 72.4701 226.71 72.7852 226.71 73.1136V78.3283H225.778V73.1304C225.778 72.4132 225.618 71.8736 225.296 71.515C224.974 71.1564 224.442 70.9754 223.692 70.9754C223.401 70.9754 223.136 71.019 222.899 71.1061C222.661 71.1933 222.444 71.3072 222.255 71.4513C222.061 71.5954 221.898 71.7596 221.763 71.944C221.627 72.1283 221.525 72.3227 221.451 72.5271C221.356 72.7818 221.302 73.0298 221.281 73.2644C221.261 73.499 221.251 73.7571 221.251 74.0319V78.3283H221.244Z" fill="white"/>
<path d="M46.8095 16.831C47.5034 17.9136 47.8538 19.5544 47.8538 21.7532V36.8056H55.2597V20.4151C55.2597 18.7642 55.11 17.2614 54.8174 15.903C54.5215 14.5447 54.0078 13.3949 53.2798 12.4501C52.5484 11.5053 51.5482 10.7657 50.2793 10.2344C49.0105 9.70321 47.3844 9.43424 45.4011 9.43424C44.0097 9.43424 42.5844 9.78727 41.125 10.49C39.6656 11.196 38.4647 12.319 37.5258 13.8656H37.3693V0H35.4745H29.9635H0V6.80502H11.1615V36.809H19.3497V6.80502H29.9567V36.809H37.3625V22.8392C37.3625 20.1259 37.815 18.1725 38.7199 16.989C39.6248 15.8022 41.0841 15.2104 43.1014 15.2104C44.8772 15.2071 46.1121 15.7484 46.8095 16.831Z" fill="white"/>
<path d="M61.9849 33.6115C63.1654 34.8488 64.6111 35.8037 66.3155 36.4727C68.0198 37.1418 69.9316 37.478 72.0544 37.478C75.1127 37.478 77.7219 36.7921 79.8787 35.417C82.0354 34.0419 83.6343 31.7556 84.6787 28.5616H78.1573C77.9124 29.3853 77.2524 30.1687 76.174 30.9083C75.0956 31.648 73.8098 32.0179 72.3129 32.0179C70.2276 32.0179 68.6253 31.4866 67.5129 30.4208C66.4005 29.355 65.7916 27.637 65.6861 25.2666H85.1413C85.2808 23.2056 85.1073 21.2287 84.6208 19.3391C84.1344 17.4496 83.3417 15.7652 82.2463 14.2858C81.1509 12.8098 79.7494 11.6297 78.0485 10.7555C76.3441 9.878 74.3438 9.44092 72.051 9.44092C69.9997 9.44092 68.1287 9.80067 66.4447 10.5235C64.7574 11.2464 63.3048 12.2349 62.0904 13.489C60.8725 14.7431 59.9336 16.2291 59.2736 17.9472C58.6137 19.6653 58.2837 21.5212 58.2837 23.5149C58.2837 25.576 58.6035 27.4689 59.2498 29.1869C59.8894 30.8983 60.8045 32.3743 61.9849 33.6115ZM66.0297 18.8684C66.2202 18.2162 66.5502 17.5975 67.0196 17.0125C67.4891 16.4275 68.115 15.94 68.8975 15.5432C69.6799 15.1499 70.663 14.9515 71.8435 14.9515C73.6499 14.9515 75.0004 15.4323 75.8849 16.3939C76.7728 17.3555 77.3885 18.7642 77.7355 20.6201H65.6895C65.7235 20.1057 65.8358 19.5207 66.0297 18.8684Z" fill="white"/>
<path d="M132.356 51.451C131.485 51.7267 130.668 52.1134 129.903 52.611C129.138 53.1086 128.461 53.7104 127.869 54.4164C127.277 55.1225 126.807 55.8857 126.46 56.7094H126.355V51.7603H119.313V78.4122H126.719V66.4026C126.719 65.1989 126.841 64.0827 127.083 63.0505C127.324 62.0183 127.736 61.1172 128.307 60.3439C128.882 59.5706 129.638 58.9621 130.577 58.5149C131.515 58.0678 132.662 57.8459 134.019 57.8459C134.472 57.8459 134.941 57.8728 135.428 57.9232C135.914 57.9736 136.332 58.0341 136.679 58.1047V51.2997C136.088 51.1282 135.55 51.0408 135.064 51.0408C134.128 51.0375 133.223 51.1753 132.356 51.451Z" fill="white"/>
<path d="M112.928 54.8804C111.71 53.6599 110.24 52.7151 108.519 52.0461C106.798 51.377 104.876 51.0408 102.756 51.0408C100.634 51.0408 98.7217 51.377 97.0174 52.0461C95.313 52.7151 93.8536 53.6599 92.6358 54.8804C91.4179 56.1008 90.479 57.5802 89.819 59.3151C89.1591 61.0499 88.8291 62.9832 88.8291 65.1148C88.8291 67.2464 89.1591 69.1696 89.819 70.8876C90.479 72.6057 91.4179 74.075 92.6358 75.2955C93.8536 76.5159 95.313 77.454 97.0174 78.1062C98.7217 78.7585 100.634 79.0846 102.756 79.0846C104.879 79.0846 106.798 78.7585 108.519 78.1062C110.24 77.454 111.71 76.5159 112.928 75.2955C114.146 74.075 115.085 72.6057 115.745 70.8876C116.405 69.1696 116.734 67.2431 116.734 65.1148C116.734 62.9832 116.405 61.0499 115.745 59.3151C115.085 57.5768 114.146 56.1008 112.928 54.8804ZM109.016 68.2315C108.808 69.2469 108.451 70.1581 107.948 70.965C107.444 71.7719 106.764 72.4174 105.913 72.8982C105.059 73.379 104.008 73.6211 102.756 73.6211C101.504 73.6211 100.46 73.3824 99.6266 72.8982C98.7931 72.4174 98.123 71.7719 97.6195 70.965C97.116 70.1581 96.7588 69.2469 96.5513 68.2315C96.3438 67.2195 96.2383 66.1773 96.2383 65.1114C96.2383 64.0456 96.3438 62.9966 96.5513 61.9678C96.7588 60.9356 97.116 60.0278 97.6195 59.2344C98.123 58.4443 98.7931 57.7987 99.6266 57.3011C100.46 56.8035 101.504 56.5547 102.756 56.5547C104.008 56.5547 105.059 56.8035 105.913 57.3011C106.764 57.7987 107.444 58.4443 107.948 59.2344C108.451 60.0245 108.808 60.9356 109.016 61.9678C109.223 63 109.329 64.049 109.329 65.1114C109.329 66.1773 109.223 67.2195 109.016 68.2315Z" fill="white"/>
<path d="M83.3556 41.6035L77.2526 66.9677H77.1506L70.7857 41.6035H63.118L56.6476 66.6584H56.5456L50.6502 41.6035H42.4619L52.3205 78.4125H60.6142L66.8226 53.3576H66.9246L73.2351 78.4125H81.3723L91.3907 41.6035H83.3556Z" fill="white"/>
<path d="M156.91 41.4421V54.8471H156.805C155.972 53.5426 154.832 52.5541 153.39 51.8817C151.947 51.2126 150.423 50.8764 148.824 50.8764C146.841 50.8764 145.103 51.263 143.609 52.0363C142.112 52.8096 140.871 53.8317 139.881 55.1026C138.891 56.3735 138.142 57.8428 137.639 59.5104C137.136 61.1781 136.884 62.9062 136.884 64.6915C136.884 66.5474 137.136 68.3361 137.639 70.0542C138.142 71.7722 138.891 73.2953 139.881 74.6166C140.871 75.9413 142.133 76.987 143.664 77.7603C145.195 78.5336 146.967 78.9202 148.984 78.9202C150.757 78.9202 152.349 78.6008 153.757 77.9654C155.165 77.3299 156.305 76.291 157.172 74.8453H157.278V78.2478H164.32V41.4421H156.91ZM156.859 68.0436C156.652 69.0758 156.302 69.9937 155.815 70.8006C155.329 71.6075 154.675 72.253 153.859 72.7338C153.043 73.2146 152.025 73.4567 150.808 73.4567C149.661 73.4567 148.678 73.2079 147.862 72.7103C147.045 72.2127 146.365 71.5604 145.827 70.7501C145.286 69.9432 144.895 69.022 144.654 67.9932C144.409 66.961 144.29 65.9322 144.29 64.9C144.29 63.8005 144.402 62.7448 144.63 61.7295C144.854 60.7174 145.222 59.813 145.725 59.0229C146.229 58.2328 146.899 57.5973 147.732 57.1166C148.566 56.6358 149.593 56.3937 150.811 56.3937C152.029 56.3937 153.036 56.6358 153.835 57.1166C154.635 57.5973 155.288 58.2261 155.791 58.9994C156.295 59.7727 156.652 60.667 156.859 61.679C157.067 62.6944 157.172 63.7501 157.172 64.8495C157.172 65.949 157.067 67.0148 156.859 68.0436Z" fill="white"/>
<path d="M40.8973 61.8738C39.7679 60.2431 38.0534 59.1 35.7605 58.4444C37.4309 57.6543 38.6895 56.6389 39.5434 55.4016C40.3939 54.1643 40.8225 52.6177 40.8225 50.7618C40.8225 49.0438 40.5367 47.6014 39.9618 46.4314C39.3869 45.2647 38.5807 44.3266 37.5363 43.6206C36.4919 42.9179 35.2401 42.4102 33.7807 42.1009C32.6104 41.8521 31.3347 41.7075 29.9638 41.6604V36.8088H25.8646V41.6369H23.4561V36.8088H19.3568V41.6369H11.1924V78.4459H19.3568V83.2639H23.4561V78.4459H25.8714V83.2639H29.9706V78.4392H29.7563C31.3177 78.4156 32.8452 78.2173 34.3318 77.8306C35.9136 77.4171 37.322 76.7816 38.5569 75.9243C39.7917 75.0669 40.7749 73.9574 41.5029 72.5991C42.2343 71.2408 42.5983 69.6337 42.5983 67.7777C42.5949 65.4747 42.0302 63.5044 40.8973 61.8738ZM27.2593 47.9275C27.9907 47.9275 28.6949 47.988 29.3719 48.1091C30.0488 48.2301 30.651 48.4453 31.1714 48.7546C31.6919 49.0639 32.1104 49.4943 32.4233 50.0423C32.7363 50.5937 32.8928 51.2964 32.8928 52.1571C32.8928 53.7037 32.4233 54.82 31.4844 55.5092C30.5455 56.1984 29.3447 56.5414 27.8853 56.5414H19.5916V47.9309H27.2593V47.9275ZM33.9099 69.6841C33.58 70.3027 33.1343 70.7936 32.5798 71.1534C32.0219 71.5131 31.379 71.772 30.651 71.9267C29.9196 72.0813 29.1542 72.1586 28.3547 72.1586H19.5916V62.0553H28.5112C30.2836 62.0553 31.7089 62.4588 32.7873 63.2657C33.8657 64.0726 34.4032 65.4242 34.4032 67.3138C34.4032 68.2753 34.2399 69.0654 33.9099 69.6841Z" fill="#F95B15"/>
</g>
<defs>
<clipPath id="clip0">
<rect width="252" height="83" fill="white"/>
</clipPath>
</defs>
</svg>
