<?xml version="1.0" encoding="UTF-8"?>
<svg width="187px" height="42px" viewBox="0 0 187 42" version="1.1"
	xmlns="http://www.w3.org/2000/svg" xmlns:xlink="http://www.w3.org/1999/xlink">
	<g id="Artboard" stroke="none" stroke-width="1" fill="none" fill-rule="evenodd"
		transform="translate(-10.000000, -65.000000)">
		<g id="USANA_Logo_White-253x46" transform="translate(10.000000, 65.000000)" fill="#FFFFFF">
			<path
				d="M114.92,7.6 C111.784328,7.59734377 108.776321,8.84180862 106.559065,11.0590647 C104.341809,13.2763207 103.097344,16.2843275 103.1,19.42 L103.099996,34.78 L109,34.78 L109,19.42 C109.130346,16.2532242 111.735543,13.7530535 114.905,13.7530535 C118.074457,13.7530535 120.679654,16.2532242 120.81,19.42 L120.81,24 L110.68,24 L111.57,29.12 L120.83,29.12 L120.83,34.78 L126.74,34.78 L126.74,19.42 C126.74,12.8919943 121.448006,7.6 114.92,7.6 Z"
				id="A1"></path>
			<path
				d="M170.06,8.6 C166.92606,8.59999888 163.920624,9.84563578 161.705531,12.0626037 C159.490439,14.2795716 158.247346,17.286061 158.25,20.42 L158.249996,35.78 L164.16,35.78 L164.16,20.42 C164.290346,17.2532242 166.895543,14.7530535 170.065,14.7530535 C173.234457,14.7530535 175.839654,17.2532242 175.97,20.42 L175.97,25 L165.81,25 L166.7,30.12 L176,30.12 L176,35.78 L181.91,35.78 L181.91,20.42 C181.910018,17.2781983 180.659211,14.2656573 178.433872,12.0478239 C176.208533,9.82999044 173.191784,8.58936785 170.05,8.6 L170.06,8.6 Z"
				id="A2"></path>
			<path
				d="M74,23.36 C74.1252004,27.6630541 71.9010579,31.6939203 68.1939713,33.8824035 C64.4868847,36.0708867 59.8831153,36.0708867 56.1760287,33.8824035 C52.4689421,31.6939203 50.2447996,27.6630541 50.37,23.36 L50.37,8 L56.28,8 L56.28,23.36 C56.4103465,26.5267758 59.0155428,29.0269465 62.185,29.0269465 C65.3544572,29.0269465 67.9596535,26.5267758 68.09,23.36 L68.09,8 L74,8 L74,23.36 Z"
				id="U" fill-rule="nonzero"></path>
			<path
				d="M154.3,34.78 L148.39,34.78 L148.39,19.42 C148.259654,16.2532242 145.654457,13.7530535 142.485,13.7530535 C139.315543,13.7530535 136.710346,16.2532242 136.58,19.42 L136.58,34.78 L130.67,34.78 L130.67,19.42 C130.5448,15.1169459 132.768942,11.0860797 136.476029,8.89759647 C140.183115,6.7091133 144.786885,6.7091133 148.493971,8.89759647 C152.201058,11.0860797 154.4252,15.1169459 154.3,19.42 L154.3,34.78 Z"
				id="N" fill-rule="nonzero"></path>
			<path
				d="M92.19,34.78 L77,34.78 L78,29.27 L92,29.27 C93.0085282,29.3777645 93.990099,28.9004206 94.5280757,28.0405814 C95.0660523,27.1807422 95.0660523,26.0892578 94.5280757,25.2294186 C93.990099,24.3695794 93.0085282,23.8922355 92,24 L84.9,24 C80.481722,24 76.9,20.418278 76.9,16 C76.9,11.581722 80.481722,8 84.9,8 L97,8 L98,13.51 L85.1,13.51 C83.8407908,13.51 82.82,14.5307908 82.82,15.79 C82.82,17.0492092 83.8407908,18.07 85.1,18.07 L92.19,18.07 C96.6918861,18.2257709 100.260907,21.9204198 100.260907,26.425 C100.260907,30.9295802 96.6918861,34.6242291 92.19,34.78 Z"
				id="S" fill-rule="nonzero"></path>
			<path
				d="M184.82,34.75 C184.251181,34.7621918 183.731556,34.4289311 183.505378,33.9068708 C183.279201,33.3848104 183.39146,32.777792 183.789388,32.3711509 C184.187315,31.9645097 184.79176,31.8391298 185.318596,32.0539473 C185.845433,32.2687648 186.189869,32.7810508 186.19,33.35 C186.203762,33.7201229 186.064854,34.0796443 185.805808,34.3443625 C185.546763,34.6090807 185.190334,34.7557429 184.82,34.75 Z M184.82,32.19 C184.344371,32.1529883 183.894581,32.4109506 183.686345,32.8401715 C183.478108,33.2693925 183.553892,33.7823369 183.877352,34.1330033 C184.200811,34.4836698 184.70598,34.6005436 185.150586,34.4275735 C185.595192,34.2546035 185.888562,33.827065 185.89,33.35 C185.912058,33.0507677 185.809793,32.7556755 185.607303,32.5342612 C185.404813,32.3128469 185.120007,32.1846935 184.82,32.18 L184.82,32.19 Z M184.54,34.19 L184.28,34.19 L184.28,32.59 L184.87,32.59 C185.24,32.59 185.44,32.72 185.44,33.04 C185.445609,33.1512669 185.40456,33.2598319 185.326737,33.3395527 C185.248914,33.4192736 185.14137,33.4629265 185.03,33.46 L185.47,34.14 L185.18,34.14 L184.78,33.48 L184.54,33.48 L184.54,34.19 Z M184.83,33.31 C185.02,33.31 185.19,33.31 185.19,33.07 C185.19,32.83 185.01,32.86 184.85,32.86 L184.54,32.86 L184.54,33.31 L184.83,33.31 Z"
				id="Reg" fill-rule="nonzero"></path>
			<g id="Globe">
				<path
					d="M12.82,2 C12.94,2.17 12.47,2.52 12.37,2.62 C11.8220036,3.20496639 11.1623534,3.67420212 10.43,4 C10.08,4.17 9.72,4.33 9.43,4.52 C8.72,4.92 7.86,5.87 7.56,5.74 C7.5,5.56 7.65,5.42 7.79,5.29 C8.22270816,4.89222578 8.68763209,4.53098991 9.18,4.21 C10.18,3.39 12.6,1.81 12.82,2 Z"
					id="g15"></path>
				<path
					d="M3.12,11.48 C3.23,11.58 3.12,11.87 3.12,12.08 C3.12,12.29 2.98,12.54 2.91,12.74 C2.77,13.16 2.42,13.87 2.22,13.83 C2.02,13.79 2.77,11.43 3.12,11.48 Z"
					id="g14"></path>
				<path
					d="M18.72,2.75 C18.85,3.12 17.88,3.75 17.4,4.07 C16.92,4.39 16,5.22 15.69,4.83 C15.39,4.26 16.22,3.72 15.45,3.09 C14.92,2.65 13.75,3.26 13.71,3.98 C13.71,4.37 14,4.57 13.95,4.98 C13.9,5.39 13.23,5.7 12.88,5.9 C12.1720548,6.23756104 11.5342148,6.70576274 11,7.28 C10.66,7.67 10.22,8.47 9.9,8.28 C9.58,8.09 10.04,7.38 10.34,6.72 C10.46,6.45 10.71,6.03 10.48,5.91 C10.25,5.79 10.02,6.17 9.87,6.39 C9.37157141,7.19438958 9.07323537,8.10654346 9,9.05 C9,9.54 9,10.05 9.34,10.15 C9.88,10.3 10.34,9.72 10.62,9.42 C10.9,9.12 11.23,8.42 11.81,8.66 C12.21,8.85 12.05,9.76 11.99,10.13 C11.77,11.54 11.78,12.55 12.54,13.43 C12.93,13.89 13.54,14.17 13.89,14.56 C14.3131901,15.0165964 14.6517965,15.5448224 14.89,16.12 C15.04,16.49 15.19,17.19 14.89,17.5 C14.59,17.81 13.04,17.9 12.32,17.93 C11,18 9.65,17.77 9.09,17 C8.70370794,16.3677851 8.53185112,15.6277486 8.6,14.89 C8.69573265,14.0669732 8.7358237,13.2384247 8.72,12.41 C8.6,11.41 7.34,11.22 7.19,10.3 C7.14992572,9.9723258 7.21283538,9.64030262 7.37,9.35 C7.64,8.84 8.07,8.64 7.74,7.94 C7.41,7.24 6.74,7.69 6.33,8.12 C6.05066364,8.43980559 5.9071509,8.85599253 5.93,9.28 C5.93,9.64 6.41,9.91 6.42,10.17 C6.43,10.43 6.04,10.94 5.9,11.12 C5.50432213,11.6040339 5.24229741,12.1832464 5.14,12.8 C5.14,12.98 5.06,13.39 4.83,13.44 C4.45,13.53 4.18,12.98 4.07,12.86 C3.55224778,12.3473498 3.46461976,11.5420066 3.86,10.93 C4.12,10.44 4.56,10.05 4.57,9.68 C4.47315048,9.2768451 4.58593407,8.85202691 4.87,8.55 C5.23225635,8.26971859 5.60947942,8.00933452 6,7.77 C6.58,7.35 7.16,6.86 7.77,6.42 C8.69936136,5.72595924 9.70608839,5.14205756 10.77,4.68 C11.5884386,4.45046099 12.3418405,4.03266538 12.97,3.46 C13.42,2.94 13.62,2.37 14.25,2.08 C15.1844629,1.79132506 16.1911452,1.8444949 17.09,2.23 C17.62,2.39 18.5,2.29 18.72,2.75 Z"
					id="g13"></path>
				<path
					d="M24.59,6.48 C23.89,6.27 24.22,4.71 24.13,3.82 C24.07,3.21 23.64,2.82 23.13,3.27 C22.62,3.72 22.61,4.97 22.61,6.05 C22.6781523,7.07837764 22.5836577,8.11106903 22.33,9.11 C22.2,9.48 21.95,9.93 21.78,10.3 C21.51,10.88 21.16,11.71 20.34,11.65 C19.52,11.59 19.32,10.51 18.91,10 C18.7540673,9.79117363 18.5688264,9.60593275 18.36,9.45 C17.69,8.97 16.86,9.03 16.95,7.86 C17.1701875,6.28976971 18.0366961,4.88305288 19.34,3.98 C20.2769082,3.32808082 21.2483212,2.72720682 22.25,2.18 C22.38,2.11 22.54,2.01 22.74,1.87 C22.74,1.87 23.14,1.63 23.11,1.47 C23.08,1.31 22.47,1.33 22.31,1.38 C21.6039405,1.72513647 20.8534752,1.97080449 20.08,2.11 C19.3499029,2.11260435 18.6218825,2.03208595 17.91,1.87 C17.22,1.74 16.11,1.58 16.14,1.26 C16.17,0.94 17.01,0.94 17.51,0.91 C18.5556387,0.979676403 19.6058819,0.902254626 20.63,0.68 C20.86,0.59 21.08,0.34 21.3,0.25 C22,-0.04 23.78,-5.07233144e-15 23.87,0.25 C23.96,0.5 23.06,0.38 23.14,0.86 C23.22,1.34 23.91,1.43 24.53,1.24 C25.46,0.96 25.77,1.24 25.87,2.24 C25.9974616,3.01162949 26.3134811,3.73984822 26.79,4.36 C27.19,4.81 29,6.21 29.2,6 C29.4,5.79 27.26,4.12 27.2,3 C27.2,2.63 27.25,2.35 27.49,2.26 C28.05,2.05 28.6,2.54 28.84,2.93 C29.08,3.32 29.09,3.81 29.33,4.21 C29.68,4.79 30.5,5.21 30.98,5.77 C31.4868708,6.263389 31.7841304,6.93311849 31.81,7.64 C31.74,8.32 30.71,7.57 30.25,7.33 C29.63,7.01 28.79,7.03 28.25,6.75 C28,6.6 27.71,6 27.19,6 C26.13,5.86 25.06,6.62 24.59,6.48 Z"
					id="g12"></path>
				<path
					d="M38.14,9.91 C38.01,10.19 37.48,11.01 37.33,11.18 C36.81,11.74 37.75,11.51 37.93,11.96 C38.11,12.41 37.93,12.89 38.19,13.3 C38.78,14.41 39.54,13.87 40.07,14.07 C40.6,14.27 40.56,14.91 40.59,15.54 C40.62,16.17 40.74,17.28 40.38,17.31 C40.02,17.34 39.66,16.31 39.38,15.93 C39.1,15.55 38.65,14.53 37.88,14.65 C37.11,14.77 36.77,15.57 36.35,16.21 C35.93,16.85 35.35,17.99 34.35,17.77 C33.5901586,17.5370537 33.1115066,16.7873069 33.22,16 C33.3558789,15.4135667 33.5927436,14.8552428 33.92,14.35 C34.72,12.91 36.03,11.52 36.58,9.95 C36.6949709,9.58484196 36.7457233,9.20250683 36.73,8.82 C36.73,8.54 36.5,7.72 36.03,7.75 C35.56,7.78 35.7,8.41 35.6,8.88 C35.3201421,10.0017825 34.7709433,11.0383952 34,11.9 C33.5399144,12.4758646 33.0277497,13.0081142 32.47,13.49 C31.9711377,14.0866186 31.2466123,14.4488814 30.47,14.49 C29.83,13.56 30.79,12.86 31.02,12.01 C31.3,11.01 30.84,9.8 29.86,9.72 C28.8675526,9.67992165 28.0243226,10.4388286 27.96,11.43 C27.89,12.12 28.13,13.11 27.71,13.43 C27.3855293,13.5669237 27.015771,13.5447382 26.71,13.37 C25.9502334,12.7236608 25.4320304,11.8388381 25.24,10.86 C25.06,10.33 24.89,9.96 24.72,9.39 C24.5032587,8.85680108 24.4612438,8.2685916 24.6,7.71 C24.84,7 26.06,7 27,7.13 C28.86,7.39 29.84,8.32 31.25,9.13 C31.72,9.41 33.36,10.46 33.88,9.65 C34.18,9.17 33.88,8.22 33.73,7.72 C33.1879723,6.09087141 32.3127391,4.59241767 31.16,3.32 C29.9707773,2.04341691 28.4107423,1.17245567 26.7,0.83 L25.7,0.63 C25.24,0.53 24.84,0.42 24.93,0.31 C25.02,0.2 25.56,0.31 25.93,0.31 C27.30278,0.587970051 28.6432122,1.00685511 29.93,1.56 C30.4202773,1.72811033 30.8847421,1.96370841 31.31,2.26 C31.5,2.43 31.46,2.65 31.62,2.81 C31.99,3.17 32.67,3.14 32.81,3.51 C32.87,3.68 32.81,3.93 32.81,4.12 C33.02,5.6 34.74,5.95 35.81,6.63 C36.3470866,7.00811425 36.8055835,7.48698882 37.16,8.04 C37.62,8.62 38.25,9.65 38.14,9.91 Z"
					id="g11"></path>
				<path
					d="M3.33,28.81 C3.53,28.66 3.33,27.66 3.05,27.55 C2.77,27.44 2.37,27.66 2.36,27.99 C2.35,28.32 3.07,29 3.33,28.81 Z"
					id="g10" fill-rule="nonzero"></path>
				<path
					d="M19.44,24.35 C20.17,23.49 20.89,23.52 21.07,23.08 C21.25,22.64 20.42,22.49 20.07,21.65 C19.52,20.44 19.96,19.65 20.65,19.27 C21.5575487,18.92401 22.5842851,19.1642046 23.2441697,19.87688 C23.9040542,20.5895553 24.0646762,21.6317077 23.65,22.51 C23.55,22.66 23.19,23.45 23.82,25.32 C24.57,27.53 25.25,26.01 25.34,25.59 C25.7455973,23.9153998 25.9039417,22.1904563 25.81,20.47 C25.5485611,18.3337671 25.0246047,16.2379414 24.25,14.23 C23.97,13.31 23.63,11.91 22.6,11.97 C21.57,12.03 21.43,13.56 20.37,13.56 C19.07,13.56 18.8,11.69 17.71,11.36 C17.5783547,11.3299953 17.4416453,11.3299953 17.31,11.36 C16.31,11.52 16.95,13.28 17.13,13.81 C17.61,15.25 18.21,16.16 18.6,17.51 C18.854311,18.2451896 18.9596931,19.023657 18.91,19.8 C18.7046488,20.7501172 18.2645922,21.6336682 17.63,22.37 C17.18,22.98 16.22,24.61 15.63,25.58 C14.96,26.72 15.7,26.68 16.03,26.58 C17.3400801,26.1434305 18.5148476,25.3751808 19.44,24.35 Z"
					id="g9" fill-rule="nonzero"></path>
				<path
					d="M11.73,33.75 C12.29,35.06 12.8,35.6 13.5,34.96 C16.09,32.61 15.72,31.96 16.5,30.96 C17.02,30.31 18.28,30.2 18.96,29.52 C19.7220758,28.6636376 20.157633,27.565892 20.19,26.42 C20.06,26.07 19.63,26.34 19.61,26.35 C17.04,28.27 15.55,28.15 13.48,28.88 C13.08,29.02 12.67,29.15 12.27,29.32 C11.87,29.49 11.57,29.62 11.61,30.1 C11.6844342,30.54374 11.4978141,30.9908506 11.13,31.25 C10.75,31.71 11.38,32.93 11.73,33.75 Z"
					id="g8" fill-rule="nonzero"></path>
				<path
					d="M8,27.32 C8.29,27.03 8.86,27.39 9.25,27.81 C9.48351027,28.1399084 9.8060682,28.3965674 10.18,28.55 C10.66,28.73 11.76,28.24 12.41,27.96 C13.47,27.52 13.71,26.66 14.07,25.59 L15.56,21.14 C15.72,20.67 15.71,20.06 15.41,19.89 C14.89,19.6 14.02,20.02 13.64,20.17 C13.26,20.32 12.95,20.44 12.57,20.6 C12.19,20.76 10.7,21.14 10.7,21.7 C10.7,22.07 11.77,21.94 11.83,22.41 C11.89,22.88 10.76,22.77 10.48,22.77 C9.66,22.77 9.8,21.65 9.23,21.61 C9.00594335,21.6217079 8.78731147,21.6831981 8.59,21.79 C8.26911228,21.9319221 8.06155523,22.2491319 8.06,22.6 C8.06,22.95 8.95,22.87 8.94,23.36 C8.94,23.68 7.94,23.71 7.59,23.65 C6.76,23.48 7.19,21.92 7.1,20.93 C7.1,20.41 6.78,20.25 6.55,19.93 C6.15042195,19.0391459 5.89393382,18.0908148 5.79,17.12 C5.64605442,16.5268077 5.40984347,15.9599015 5.09,15.44 C4.82902389,14.9316758 4.49178628,14.4662879 4.09,14.06 C3.93541137,13.9280502 3.75959188,13.8232347 3.57,13.75 C2.75,13.59 2.29,14.83 2.47,15.65 C2.64529645,16.1605034 2.86967966,16.6528068 3.14,17.12 C3.4010842,17.5982505 3.61541074,18.1005783 3.78,18.62 C3.84935898,19.5553827 3.84935898,20.4946173 3.78,21.43 C3.84,22.33 5.13,22.31 5.1,22.78 C5.07,23.25 3.58,23.2 3.26,23.04 C2.94,22.88 2.91,22.55 2.87,22.04 C2.83,21.53 2.87,20.69 2.81,19.96 C2.75,19.44 2.56,18.49 2.11,18.52 C1.83,18.52 1.68,19.14 1.62,19.38 C1.56,19.62 1.55,19.72 1.51,19.88 C1.47,20.04 1.45,20.41 1.28,20.39 C1.11,20.37 1.16,19.97 1.16,19.76 C1.33339699,18.9862083 1.55720782,18.2245834 1.83,17.48 C1.9,17.01 1.83,16.55 1.49,16.59 C1.15,16.63 1.19,17.22 1.12,17.59 C0.831010282,19.2602466 0.750394354,20.9598991 0.88,22.65 C0.88,22.85 0.88,23.05 0.94,23.25 C1.00205999,23.8385434 1.09889594,24.4228982 1.23,25 C1.29868631,25.3431027 1.40256902,25.6782082 1.54,26 C1.69,26.29 1.91,26.87 2.42,26.44 C2.72921356,26.1172937 3.06360096,25.8196889 3.42,25.55 C3.69110371,25.4416246 3.97256269,25.3612078 4.26,25.31 C4.74,25.17 4.54,24.42 4.88,23.95 C5.0438403,23.7012049 5.30316925,23.5311325 5.59664701,23.4800106 C5.89012476,23.4288887 6.19168544,23.5012577 6.43,23.68 C6.85645924,24.0486737 6.9688037,24.6644878 6.7,25.16 C6.21,25.95 5.49,25.82 5.33,25.94 C5.17,26.06 5.33,26.45 5.33,26.45 C5.33,26.45 5.61,27.45 5.71,27.78 C6.34052148,29.3979861 7.50009887,30.7549383 9,31.63 C9.37,31.89 9.83,31.88 9.68,31.22 C9.55945128,30.7051227 9.38167901,30.2053478 9.15,29.73 C8.90805228,29.2444322 8.63757943,28.7736091 8.34,28.32 C8.22,28.19 7.72,27.6 8,27.32 Z"
					id="g7" fill-rule="nonzero"></path>
				<path
					d="M36.77,6.27 C36.61,6.41 36.01,5.89 35.68,5.64 C35.1905854,5.32737286 34.7318716,4.96910734 34.31,4.57 C34.24,4.5 34.12,4.33 34.23,4.19 C34.34,4.05 34.58,4.27 34.69,4.34 C35.0952639,4.60976617 35.4736693,4.91784851 35.82,5.26 C36.16,5.57 36.91,6 36.77,6.27 Z"
					id="g6"></path>
				<path
					d="M41.32,13.61 C40.7,13.81 40.39,12.56 39.85,11.99 C39.518145,11.6961517 39.1201769,11.4868755 38.69,11.38 C38.31,11.25 37.61,10.99 37.89,10.52 C38.21,10.27 38.89,10.97 39.05,10.8 C39.21,10.63 38.76,9.8 38.5,9.39 C38.24,8.98 37.7,8 37.93,7.83 C38.16,7.66 39.46,9.47 40.07,10.52 C40.3826829,11.0252275 40.6697133,11.5458874 40.93,12.08 C41.13,12.55 41.55,13.52 41.32,13.61 Z"
					id="g5"></path>
				<path
					d="M40.79,23.05 C40.34,22.93 39.12,21.97 38.79,22.71 C38.57,23.2 40.43,24.36 40.99,24.49 C41.85,24.7 42.36,23.43 42.68,23.88 C42.6451476,24.58014 42.4537893,25.2635623 42.12,25.88 C41.83,26.1 41.24,25.88 40.68,25.97 C39.23,26.12 39.18,27.78 38.88,29.18 C38.8190599,29.7918547 38.5868428,30.3741303 38.21,30.86 C38.07,30.98 37.21,31.2 37.21,31.5 C37.21,32 38.51,31.55 38.68,31.44 C39.42,30.91 39.68,29.17 40.3,28.23 C40.48,27.95 40.89,27.5 41.3,27.74 C41.71,27.98 41.04,29.44 40.9,29.74 C40.3633357,30.9543422 39.6924966,32.1048312 38.9,33.17 C38.4,33.86 37.64,34.93 36.9,34.52 C35.8591672,33.8090295 35.3404076,32.5475005 35.58,31.31 C35.78,30.75 36.39,30.58 36.41,29.9 C36.3426065,29.4083078 36.1056331,28.9555824 35.74,28.62 C35.45,28.27 35.14,27.88 34.88,27.52 C34.28,26.68 33.66,26.1 33.11,25.41 C32.4855135,24.6636321 32.0163419,23.8000843 31.73,22.87 C31.35,21.67 30.79,19.53 31.49,18.25 C31.6480287,17.8802728 31.9834471,17.6164607 32.38,17.55 C32.93,17.55 33.24,18.21 33.48,18.55 C33.72,18.89 34.13,19.48 34.64,19.47 C35.15,19.46 35.94,18.47 36.29,18.06 C36.64,17.65 37.38,16.75 38.19,16.9 C38.7276676,17.0768333 39.0663832,17.607906 39,18.17 C38.91,19.24 37.16,19.54 36.37,20.17 C35.689286,20.6489438 35.3097022,21.4498658 35.37,22.28 C35.57,23.61 36.74,24.28 37.2,25.28 C37.354862,25.5892994 37.3972872,25.9428427 37.32,26.28 C37.26,26.51 37.02,26.66 36.8,26.86 C36.58,27.06 36.31,27.26 36.4,27.53 C36.49,27.8 37.33,27.53 37.5,27.41 C37.9250513,27.2344862 38.2357852,26.8601081 38.33,26.41 C38.305651,25.6532696 38.0851136,24.9158475 37.69,24.27 C37.46,23.75 36.97,22.66 37.35,22.01 C37.6,21.59 38.27,21.43 38.91,21.31 C39.5404011,21.2836647 40.1651335,21.1795427 40.77,21 C41.4192015,20.4713986 41.8179919,19.69557 41.87,18.86 C42,18.15 42.02,16.94 42.33,16.93 C42.64,16.92 42.67,18.06 42.73,18.67 C43,21.34 41.89,23.35 40.79,23.05 Z"
					id="g4"></path>
				<path
					d="M33.65,38.14 C33.78,38.52 32.92,38.82 32.46,39.09 C31.9000535,39.4513176 31.3074595,39.7593325 30.69,40.01 C29.69,40.34 28.94,39.89 27.82,40.22 C27.37,40.35 26.23,40.7 26.08,40.16 C25.93,39.62 26.78,38.97 26.97,38.66 C27.69,37.48 27.26,35.93 27.03,34.44 C26.8943336,33.4940428 26.9350196,32.5311411 27.15,31.6 C27.33,30.83 27.53,29.88 27.79,29.03 C28.05,28.18 28.54,26.4 29.79,26.64 C30.4411494,26.8653834 31.0350553,27.2306015 31.53,27.71 C31.85,27.99 32.38,28.5 32.33,28.99 C32.28,29.48 31.82,29.6 31.5,29.72 C31.18,29.84 30.65,29.91 30.55,30.33 C30.5069599,30.7656237 30.6525719,31.1988193 30.95,31.52 C31.3954318,32.1265276 31.9087671,32.6801244 32.48,33.17 C32.64,33.31 33.11,33.81 33.48,33.66 C33.85,33.51 33.56,32.71 33.48,32.5 C33.4,32.29 33.03,31.76 33.05,31.4 C33.0775143,31.1083989 33.3083989,30.8775143 33.6,30.85 C34.05,30.85 34.41,31.28 34.6,31.68 C35.0143225,32.5973258 35.2518113,33.5846008 35.3,34.59 C35.35,35.13 35.47,36.08 35.21,36.39 C34.55319,36.77208 33.7986467,36.9528922 33.04,36.91 C32.04,36.86 31.53,35.98 30.72,35.69 C30.33,35.55 29.92,35.59 29.86,35.84 C29.75,36.29 30.56,36.77 30.86,37 C31.2371982,37.3541935 31.669513,37.644655 32.14,37.86 C32.87,38.13 33.57,37.8 33.65,38.14 Z"
					id="g3"></path>
				<path
					d="M6.18,32.11 C5.10865274,31.6016065 4.18838109,30.82265 3.51,29.85 C3.19,29.53 2.98,29.85 3.14,30.28 C3.33431393,30.7698572 3.5649559,31.2445117 3.83,31.7 C4.40968939,32.5982438 5.04422731,33.4598795 5.73,34.28 C6.42,35.15 6.73,34.71 6.87,34.39 C7.00910046,34.0110839 7.10960961,33.6190982 7.17,33.22 C7.19,32.71 6.88,32.44 6.18,32.11 Z"
					id="g2" fill-rule="nonzero"></path>
				<path
					d="M25.21,41.25 C25.21,40.98 25.36,39.74 25.41,39.49 C25.549945,38.2333218 25.5027652,36.9628375 25.27,35.72 C25.09,34.48 24.7,33.56 24.52,32.45 C24.3870915,31.5195068 24.3302366,30.5797296 24.35,29.64 C24.35,28.43 23.51,29.12 23.1,29.77 C21.66,32.02 20.32,32.12 19.74,33.08 C18.5952983,34.8441068 17.0187517,36.286406 15.16,37.27 C14.54,37.62 12.62,38.66 11.36,37.98 C10.1,37.3 9.86,35.1 9.87,34.33 C9.88,33.56 9.06,33.93 8.81,34.33 C8.68,34.53 8.45,34.79 8.28,35.1 C7.65,36.24 8.67,37.1 8.98,37.44 C9.94659509,38.5051146 11.1582267,39.3185897 12.51,39.81 C13.25,40.15 15.51,40.81 17.06,39.08 C17.77,38.26 17.8,37.86 18.18,37.45 C18.96,36.6 19.76,36.97 20.28,36.45 C20.47,36.27 20.36,35.65 20.5,35.27 C20.7439756,34.6855509 21.4145778,34.4083686 22,34.65 C22.5859092,34.974906 22.8001914,35.7115011 22.48,36.3 C21.96,37.3 21.21,36.81 20.9,37.6 C20.83,38.06 20.65,39.83 21.37,39.93 C21.75,39.98 23.12,39.36 23.31,39.75 C23.5,40.14 21.19,41.32 20.64,41.13 C20.09,40.94 19.87,39.65 19.56,39.55 C19.41,39.55 19.13,39.78 18.78,40.24 C17.99,41.24 19.71,41.79 20.08,41.85 C21.0477116,41.9784885 22.0242161,42.0286514 23,42 C23.7,42 25.62,41.85 25.66,41.17 C25.72,40.68 25.26,41.69 25.21,41.25 Z"
					id="g1" fill-rule="nonzero"></path>
			</g>
		</g>
	</g>
</svg>