<svg xmlns="http://www.w3.org/2000/svg" xmlns:xlink="http://www.w3.org/1999/xlink" width="140" height="57" viewBox="0 0 140 57">
  <defs>
    <polygon id="white-a" points=".02 .215 139.554 .215 139.554 11.65 .02 11.65"/>
  </defs>
  <g fill="none" fill-rule="evenodd">
    <g transform="translate(0 44.935)">
      <mask id="white-b" fill="#fff">
        <use xlink:href="#white-a"/>
      </mask>
      <path fill="#FFF" d="M125.929927,11.4302439 L134.523027,11.4302439 L134.523027,8.76008034 L129.057713,8.76008034 L129.057713,0.435374462 L125.929927,0.435374462 L125.929927,11.4302439 Z M115.596107,11.4302439 L124.189543,11.4302439 L124.189543,8.76008034 L118.723894,8.76008034 L118.723894,0.435374462 L115.596107,0.435374462 L115.596107,11.4302439 Z M101.474217,11.4302439 L104.763212,11.4302439 L105.569256,9.46706456 L109.922565,9.46706456 L110.74473,11.4302439 L114.097873,11.4302439 L109.293515,0.35682066 L106.278575,0.35682066 L101.474217,11.4302439 Z M106.488146,7.09513917 L107.762032,3.96962984 L109.01946,7.09513917 L106.488146,7.09513917 Z M89.0779327,11.5087977 L91.8026971,11.5087977 L94.0596202,5.1788924 L96.333,11.5087977 L99.0574286,11.5087977 L102.830386,0.435374462 L99.5897534,0.435374462 L97.6226703,6.79656815 L95.4460158,0.404086083 L92.753829,0.404086083 L90.5771745,6.79656815 L88.6104272,0.435374462 L85.3053111,0.435374462 L89.0779327,11.5087977 Z M71.3285089,11.4302439 L80.4861758,11.4302439 L80.4861758,8.83830129 L74.4240536,8.83830129 L74.4240536,7.09513917 L79.8410048,7.09513917 L79.8410048,4.69192539 L74.4240536,4.69192539 L74.4240536,3.02698422 L80.4052356,3.02698422 L80.4052356,0.435374462 L71.3285089,0.435374462 L71.3285089,11.4302439 Z M58.9382699,11.4302439 L62.0663922,11.4302439 L62.0663922,7.25224677 L66.0808269,7.25224677 L66.0808269,11.4302439 L69.2082775,11.4302439 L69.2082775,0.435374462 L66.0808269,0.435374462 L66.0808269,4.55079484 L62.0663922,4.55079484 L62.0663922,0.435374462 L58.9382699,0.435374462 L58.9382699,11.4302439 Z M50.3720378,11.4302439 L53.4994883,11.4302439 L53.4994883,3.10553802 L56.8855446,3.10553802 L56.8855446,0.435707317 L46.9863173,0.435707317 L46.9863173,3.10553802 L50.3720378,3.10553802 L50.3720378,11.4302439 Z M32.5423455,11.4302439 L35.6701319,11.4302439 L35.6701319,7.50355237 L41.0064787,7.50355237 L41.0064787,4.97451937 L35.6701319,4.97451937 L35.6701319,3.10520516 L41.5707095,3.10520516 L41.5707095,0.435374462 L32.5423455,0.435374462 L32.5423455,11.4302439 Z M21.6929938,11.4302439 L24.8207802,11.4302439 L24.8207802,7.50355237 L30.1571271,7.50355237 L30.1571271,4.97451937 L24.8207802,4.97451937 L24.8207802,3.10520516 L30.7216937,3.10520516 L30.7216937,0.435374462 L21.6929938,0.435374462 L21.6929938,11.4302439 Z M7.59159066,5.96409756 C7.59159066,9.12122812 10.1712672,11.6499283 13.6533771,11.6499283 C17.1358228,11.6499283 19.7477411,9.08993974 19.7477411,5.93280918 L19.7477411,5.90118795 C19.7477411,2.74405739 17.1684004,0.215357245 13.6859547,0.215357245 C10.2031731,0.215357245 7.59159066,2.77534577 7.59159066,5.93280918 L7.59159066,5.96409756 L7.59159066,5.96409756 Z M16.5554712,5.96409756 C16.5554712,7.55048494 15.4105529,8.9012109 13.6859547,8.9012109 C11.9768056,8.9012109 10.7999815,7.5188637 10.7999815,5.93280918 L10.7999815,5.90118795 C10.7999815,4.31480057 11.9445639,2.96407461 13.6533771,2.96407461 C15.378647,2.96407461 16.5554712,4.34642181 16.5554712,5.93280918 L16.5554712,5.96409756 L16.5554712,5.96409756 Z M137.039899,4.87233286 L139.150727,4.87233286 L139.553749,0.385113343 L137.442921,0.385113343 L137.039899,4.87233286 Z M2.11082761,0.385113343 L0,0.385113343 L0.403021978,4.87233286 L2.51384959,4.87233286 L2.11082761,0.385113343 Z M133.681383,4.87233286 L135.79221,4.87233286 L136.195232,0.385113343 L134.084405,0.385113343 L133.681383,4.87233286 Z M5.87203022,4.87233286 L3.76120261,4.87233286 L3.35818063,0.385113343 L5.46900824,0.385113343 L5.87203022,4.87233286 L5.87203022,4.87233286 Z" mask="url(#white-b)"/>
    </g>
    <path fill="#FFF" d="M55.6046065,27.1826112 L58.408296,18.8911908 L61.1760495,27.1826112 L55.6046065,27.1826112 Z M44.9916944,35.5968551 L52.2309766,35.5968551 L53.5821078,31.6951277 L63.1636195,31.6951277 L64.5500151,35.5968551 L71.6771229,35.5968551 L62.5570714,10.6550244 L54.8895783,10.6550244 L44.9916944,35.5968551 Z M122.378967,34.0450846 C122.378967,34.165911 122.293997,34.2501234 122.135139,34.2501234 L121.820782,34.2501234 L121.820782,33.8363845 L122.127414,33.8363845 C122.282578,33.8363845 122.378967,33.9059512 122.378967,34.0450846 Z M122.696683,34.0267776 C122.696683,33.7338651 122.478715,33.5617791 122.138833,33.5617791 L121.507096,33.5617791 L121.507096,34.9714204 L121.820782,34.9714204 L121.820782,34.517406 L122.06864,34.517406 L122.371578,34.9714204 L122.737321,34.9714204 L122.39005,34.4661463 C122.571074,34.400241 122.696683,34.2574462 122.696683,34.0267776 Z M123.239755,34.3013831 C123.239755,34.9531133 122.729932,35.4840172 122.053863,35.4840172 C121.381488,35.4840172 120.875023,34.9604362 120.875023,34.3087059 C120.875023,33.6569756 121.385182,33.1260717 122.061251,33.1260717 C122.733626,33.1260717 123.239755,33.6496528 123.239755,34.3013831 Z M123.394918,34.3013831 C123.394918,33.5764247 122.811208,32.9796155 122.061251,32.9796155 C121.311295,32.9796155 120.71986,33.5837475 120.71986,34.3087059 C120.71986,35.0336643 121.30357,35.6304735 122.053863,35.6304735 C122.803819,35.6304735 123.394918,35.0263415 123.394918,34.3013831 Z M80.9603984,22.9859742 L90.3830522,35.5968551 L96.2789279,35.5968551 L96.2789279,10.6550244 L89.4739018,10.6550244 L89.4739018,24.219868 L80.927149,10.6550244 L74.4116271,10.6550244 L74.4116271,35.5968551 L80.9603984,35.5968551 L80.9603984,22.9859742 Z M18.5316223,0.32220373 C18.5813283,0.537560976 31.228158,35.5968551 31.228158,35.5968551 L38.7734011,35.5968551 L50.3952115,6.42443615 L122.577455,6.42443615 L123.125565,0.32220373 L44.8479499,0.32220373 L35.2029622,24.5107834 L26.519182,0.32220373 L18.5316223,0.32220373 L18.5316223,0.32220373 Z M120.977458,17.7062267 L114.912313,17.7062267 C114.323901,16.2300143 113.667647,15.0783357 110.267149,15.0783357 C107.919546,15.0783357 106.919716,16.0366255 106.919716,16.9999082 C106.919716,18.0503989 107.754979,18.9371248 110.345738,19.506307 L115.839935,20.9592195 C119.435563,21.9118508 121.18132,24.7404534 121.18132,27.7291593 C121.18132,29.3917704 120.8186,31.4012166 119.225992,33.0441894 C118.035734,34.2720918 116.235905,35.8924304 110.267149,35.8924304 C102.059271,35.8924304 99.3617102,30.7508178 99.3617102,27.6432826 L105.752631,27.6432826 C106.380674,29.912023 107.951116,30.7757819 111.064125,30.7757819 C113.219621,30.7757819 115.070499,30.0138766 115.070499,28.3792253 C115.070499,26.824792 113.730451,26.2399656 111.998464,25.7706399 L107.657582,24.6096413 C105.56489,23.9782152 103.815103,23.4729412 102.580177,22.4354319 C99.3455893,19.72 99.5810213,14.8153802 103.098396,12.2653773 C105.045663,10.8544046 107.04163,10.1174634 110.209047,10.1174634 C113.930955,10.1174634 116.05488,11.1706169 117.730109,12.3133085 C119.214237,13.3255208 120.977458,15.7676786 120.977458,17.7062267 L120.977458,17.7062267 Z"/>
  </g>
</svg>
